<svg width="370" height="480" viewBox="0 0 370 480" fill="none" xmlns="http://www.w3.org/2000/svg">
<g clip-path="url(#clip0_632_3053)">
<path d="M-1.32082 368.658L175.645 443.93C178.177 445.008 181.04 445.016 183.578 443.953L385.267 359.537C393.634 356.035 393.56 344.195 385.15 340.797L183.92 259.487C181.181 258.381 178.095 258.515 175.464 259.857L-1.96057 350.311C-9.6375 354.225 -9.25186 365.285 -1.32082 368.658Z" fill="#746288"/>
<path d="M10.3715 335.948L64.7117 353.816C68.1384 354.943 68.4975 359.622 65.2831 361.253L25.861 381.255C22.4632 382.979 18.4967 383.217 14.9146 381.912L-30.8336 365.25C-34.0871 364.065 -34.4523 359.634 -31.4363 357.937L7.09616 336.268C8.09415 335.706 9.28362 335.591 10.3715 335.948Z" fill="#746288"/>
<path d="M113.5 471.744C127.859 471.744 139.5 467.267 139.5 461.744C139.5 456.221 127.859 451.744 113.5 451.744C99.1406 451.744 87.5 456.221 87.5 461.744C87.5 467.267 99.1406 471.744 113.5 471.744Z" fill="#746288"/>
<path d="M103.5 479.744C114.546 479.744 123.5 476.386 123.5 472.244C123.5 468.102 114.546 464.744 103.5 464.744C92.4543 464.744 83.5 468.102 83.5 472.244C83.5 476.386 92.4543 479.744 103.5 479.744Z" fill="#746288"/>
<path d="M70 449.744C82.4264 449.744 92.5 446.162 92.5 441.744C92.5 437.326 82.4264 433.744 70 433.744C57.5736 433.744 47.5 437.326 47.5 441.744C47.5 446.162 57.5736 449.744 70 449.744Z" fill="#746288"/>
<path d="M326.5 400.744C343.621 400.744 357.5 397.61 357.5 393.744C357.5 389.878 343.621 386.744 326.5 386.744C309.379 386.744 295.5 389.878 295.5 393.744C295.5 397.61 309.379 400.744 326.5 400.744Z" fill="#746288"/>
<path d="M182.276 245.515C179.923 244.487 176.072 244.487 173.724 245.515L133.776 262.984C131.423 264.011 129.5 267.312 129.5 270.321V278.168C129.5 281.177 131.423 284.477 133.776 285.505L173.724 302.974C176.077 304.001 179.928 304.001 182.276 302.974L222.224 285.505C224.577 284.477 226.5 281.177 226.5 278.168V270.321C226.5 267.312 224.577 264.011 222.224 262.984L182.276 245.515Z" fill="#312B4C" stroke="#312B4C" stroke-width="1.42958" stroke-linecap="round" stroke-linejoin="round"/>
<path d="M178.5 298.823C178.5 301.842 176.557 303.465 174.18 302.434L133.82 284.903C131.443 283.872 129.5 280.56 129.5 277.54V269.666C129.5 266.646 131.443 265.024 133.82 266.054L174.18 283.585C176.557 284.617 178.5 287.929 178.5 290.948V298.823Z" fill="#E4E1FD" stroke="#312B4C" stroke-width="1.42958" stroke-linecap="round" stroke-linejoin="round"/>
<path d="M177.5 298.823C177.5 301.842 179.443 303.465 181.82 302.434L222.18 284.903C224.557 283.872 226.5 280.56 226.5 277.54V269.666C226.5 266.646 224.557 265.024 222.18 266.054L181.82 283.585C179.443 284.617 177.5 287.929 177.5 290.948V298.823Z" fill="#6140FF" stroke="#312B4C" stroke-width="1.42958" stroke-linecap="round" stroke-linejoin="round"/>
<path d="M133.265 266.603C130.912 265.582 130.912 263.907 133.265 262.885L173.223 245.511C175.577 244.489 179.428 244.489 181.777 245.511L221.735 262.885C224.088 263.907 224.088 265.582 221.735 266.603L181.777 283.978C179.423 285 175.572 285 173.223 283.978L133.265 266.603Z" fill="#312B4C" stroke="#312B4C" stroke-width="1.42958" stroke-linecap="round" stroke-linejoin="round"/>
<path d="M230.276 266.515C227.923 265.487 224.072 265.487 221.724 266.515L181.776 283.984C179.423 285.011 177.5 288.312 177.5 291.321V299.168C177.5 302.177 179.423 305.477 181.776 306.505L221.724 323.974C224.077 325.001 227.928 325.001 230.276 323.974L270.224 306.505C272.577 305.477 274.5 302.177 274.5 299.168V291.321C274.5 288.312 272.577 285.011 270.224 283.984L230.276 266.515Z" fill="#312B4C" stroke="#312B4C" stroke-width="1.42958" stroke-linecap="round" stroke-linejoin="round"/>
<path d="M226.5 320.823C226.5 323.842 224.557 325.465 222.18 324.434L181.82 306.903C179.443 305.872 177.5 302.56 177.5 299.54V291.666C177.5 288.646 179.443 287.024 181.82 288.054L222.18 305.585C224.557 306.617 226.5 309.929 226.5 312.948V320.823Z" fill="#E4E1FD" stroke="#312B4C" stroke-width="1.42958" stroke-linecap="round" stroke-linejoin="round"/>
<path d="M226.5 320.823C226.5 323.842 228.443 325.465 230.82 324.434L271.18 306.903C273.557 305.872 275.5 302.56 275.5 299.54V291.666C275.5 288.646 273.557 287.024 271.18 288.054L230.82 305.585C228.443 306.617 226.5 309.929 226.5 312.948V320.823Z" fill="#312B4C" stroke="#312B4C" stroke-width="1.42958" stroke-linecap="round" stroke-linejoin="round"/>
<path d="M182.265 287.603C179.912 286.582 179.912 284.907 182.265 283.885L222.223 266.511C224.577 265.489 228.428 265.489 230.777 266.511L270.735 283.885C273.088 284.907 273.088 286.582 270.735 287.603L230.777 304.978C228.423 306 224.572 306 222.223 304.978L182.265 287.603Z" fill="#E4E1FD" stroke="#312B4C" stroke-width="1.42958" stroke-linecap="round" stroke-linejoin="round"/>
<path d="M278.571 243.393C276.606 242.528 273.39 242.528 271.43 243.393L238.071 258.094C236.106 258.959 234.5 261.737 234.5 264.269V307.22C234.5 309.752 236.106 312.529 238.071 313.394L271.43 328.096C273.395 328.96 276.61 328.96 278.571 328.096L311.93 313.394C313.894 312.529 315.5 309.752 315.5 307.22V264.269C315.5 261.737 313.894 258.959 311.93 258.094L278.571 243.393Z" fill="#312B4C" stroke="#312B4C" stroke-width="1.18313" stroke-linecap="round" stroke-linejoin="round"/>
<path d="M274.5 324.474C274.5 326.992 272.915 328.345 270.974 327.485L238.027 312.865C236.086 312.006 234.5 309.243 234.5 306.726V264.014C234.5 261.496 236.086 260.143 238.027 261.003L270.974 275.623C272.915 276.483 274.5 279.245 274.5 281.763V324.474Z" fill="#B2A9F8" stroke="#312B4C" stroke-width="1.18313" stroke-linecap="round" stroke-linejoin="round"/>
<path d="M311.326 312.861H311.326L278.165 327.538C277.374 327.887 276.752 327.762 276.321 327.394C275.861 327.004 275.5 326.236 275.5 325.091V282.214C275.5 281.076 275.862 279.858 276.458 278.823C277.058 277.781 277.856 276.988 278.674 276.627L311.835 261.95C312.626 261.601 313.248 261.727 313.679 262.094C314.139 262.485 314.5 263.253 314.5 264.397V307.274C314.5 308.413 314.138 309.63 313.542 310.665C312.942 311.707 312.144 312.5 311.326 312.861Z" fill="#6140FF" stroke="#312B4C" stroke-width="1.18313"/>
<path d="M237.958 261.324C236.014 260.456 236.014 259.032 237.958 258.164L270.967 243.396C272.911 242.527 276.093 242.527 278.033 243.396L311.042 258.164C312.986 259.032 312.986 260.456 311.042 261.324L278.033 276.093C276.089 276.961 272.907 276.961 270.967 276.093L237.958 261.324Z" fill="#312B4C" stroke="#312B4C" stroke-width="1.18313" stroke-linecap="round" stroke-linejoin="round"/>
<path d="M275.5 324.474C275.5 326.992 277.086 328.345 279.026 327.485L311.973 312.865C313.914 312.006 315.5 309.243 315.5 306.726V264.014C315.5 261.496 313.914 260.143 311.973 261.003L279.026 275.623C277.086 276.483 275.5 279.245 275.5 281.763V324.474Z" stroke="#312B4C" stroke-width="1.18313" stroke-linecap="round" stroke-linejoin="round"/>
<path d="M279.5 285.411C279.5 285.079 279.695 284.779 279.998 284.643L286.314 281.819C286.871 281.57 287.5 281.977 287.5 282.586V319.078C287.5 319.409 287.305 319.71 287.002 319.845L280.686 322.67C280.129 322.919 279.5 322.512 279.5 321.902V285.411Z" fill="#FF7E4D"/>
<path d="M291.5 291.349C291.5 291.023 291.695 290.727 291.998 290.594L298.314 287.817C298.871 287.572 299.5 287.973 299.5 288.572V313.139C299.5 313.466 299.305 313.761 299.002 313.894L292.686 316.671C292.129 316.916 291.5 316.516 291.5 315.917V291.349Z" fill="#312B4C"/>
<path d="M303.5 300.421C303.5 300.089 303.695 299.787 303.998 299.651L310.314 296.819C310.871 296.569 311.5 296.977 311.5 297.589V309.067C311.5 309.4 311.305 309.701 311.002 309.837L304.686 312.67C304.129 312.919 303.5 312.511 303.5 311.9V300.421Z" fill="#E4E1FD"/>
<path d="M238.5 308.744L268.911 321.558" stroke="#312B4C" stroke-width="0.78875"/>
<path d="M239.5 268.744V308.744" stroke="#312B4C" stroke-width="0.78875"/>
<path d="M241.5 298.617C241.5 297.973 242.118 297.551 242.65 297.833L244.05 298.575C244.325 298.721 244.5 299.025 244.5 299.359V309.871C244.5 310.515 243.881 310.937 243.35 310.655L241.95 309.913C241.674 309.768 241.5 309.463 241.5 309.13V298.617Z" fill="#312B4C"/>
<path d="M246.5 296.579C246.5 295.963 247.119 295.56 247.65 295.829L249.05 296.539C249.325 296.679 249.5 296.97 249.5 297.289V311.909C249.5 312.525 248.881 312.928 248.35 312.659L246.95 311.949C246.675 311.81 246.5 311.518 246.5 311.199V296.579Z" fill="#312B4C"/>
<path d="M252.5 281.592C252.5 280.967 253.119 280.557 253.65 280.831L255.05 281.551C255.326 281.692 255.5 281.988 255.5 282.312V314.897C255.5 315.522 254.882 315.931 254.351 315.658L252.95 314.937C252.675 314.796 252.5 314.5 252.5 314.176V281.592Z" fill="#312B4C"/>
<path d="M258.5 288.575C258.5 287.962 259.119 287.561 259.65 287.829L261.05 288.534C261.326 288.673 261.5 288.962 261.5 289.28V316.914C261.5 317.526 260.882 317.928 260.35 317.66L258.95 316.954C258.675 316.815 258.5 316.526 258.5 316.209V288.575Z" fill="#312B4C"/>
<path d="M264.5 282.595C264.5 281.967 265.119 281.557 265.65 281.831L267.05 282.553C267.325 282.696 267.5 282.992 267.5 283.318V319.894C267.5 320.521 266.882 320.932 266.35 320.657L264.95 319.935C264.675 319.793 264.5 319.496 264.5 319.171V282.595Z" fill="#312B4C"/>
<path d="M287.5 265.236C285.409 267.286 282.595 268.879 279.413 269.814C276.231 270.75 272.824 270.986 269.624 270.493C266.423 269.999 263.572 268.798 261.432 267.043C259.291 265.287 257.957 263.054 257.598 260.627C257.239 258.2 257.871 255.688 259.415 253.408C260.958 251.128 263.344 249.183 266.27 247.819C269.195 246.455 272.531 245.733 275.853 245.744C279.174 245.756 282.334 246.5 284.933 247.883L274.362 258.244L287.5 265.236Z" fill="#B2A9F8"/>
<path d="M288.335 250.744C290.036 252.331 291.099 254.291 291.407 256.409C291.715 258.527 291.255 260.72 290.079 262.744L276.5 258.68L288.335 250.744Z" fill="#FF7E4D"/>
<path d="M287.5 266.016C285.854 267.697 283.752 269.089 281.363 270.081C278.974 271.074 276.362 271.638 273.739 271.731C271.115 271.823 268.552 271.44 266.253 270.613C263.954 269.785 261.984 268.536 260.5 266.965L274.385 258.744L287.5 266.016Z" fill="#6140FF"/>
<path d="M328.276 308.515C325.923 307.487 322.072 307.487 319.724 308.515L279.776 325.984C277.423 327.011 275.5 330.312 275.5 333.321V341.168C275.5 344.177 277.423 347.477 279.776 348.505L319.724 365.974C322.077 367.001 325.928 367.001 328.276 365.974L368.224 348.505C370.577 347.477 372.5 344.177 372.5 341.168V333.321C372.5 330.312 370.577 327.011 368.224 325.984L328.276 308.515Z" fill="#312B4C" stroke="#312B4C" stroke-width="1.42958" stroke-linecap="round" stroke-linejoin="round"/>
<path d="M324.5 362.823C324.5 365.842 322.557 367.465 320.18 366.434L279.82 348.903C277.443 347.872 275.5 344.56 275.5 341.54V333.665C275.5 330.646 277.443 329.023 279.82 330.055L320.18 347.585C322.557 348.616 324.5 351.928 324.5 354.948V362.823Z" fill="#E4E1FD" stroke="#312B4C" stroke-width="1.42958" stroke-linecap="round" stroke-linejoin="round"/>
<path d="M323.5 362.823C323.5 365.842 325.443 367.465 327.82 366.434L368.18 348.903C370.557 347.872 372.5 344.56 372.5 341.54V333.665C372.5 330.646 370.557 329.023 368.18 330.055L327.82 347.585C325.443 348.616 323.5 351.928 323.5 354.948V362.823Z" fill="#E4E1FD" stroke="#312B4C" stroke-width="1.42958" stroke-linecap="round" stroke-linejoin="round"/>
<path d="M279.265 329.603C276.912 328.582 276.912 326.907 279.265 325.885L319.224 308.511C321.577 307.489 325.428 307.489 327.776 308.511L367.735 325.885C370.088 326.907 370.088 328.582 367.735 329.603L327.776 346.978C325.423 348 321.572 348 319.224 346.978L279.265 329.603Z" fill="#E4E1FD" stroke="#312B4C" stroke-width="1.42958" stroke-linecap="round" stroke-linejoin="round"/>
<path d="M133.276 266.515C130.923 265.487 127.072 265.487 124.724 266.515L84.7757 283.984C82.4228 285.011 80.5 288.312 80.5 291.321V299.168C80.5 302.177 82.4228 305.477 84.7757 306.505L124.724 323.974C127.077 325.001 130.928 325.001 133.276 323.974L173.224 306.505C175.577 305.477 177.5 302.177 177.5 299.168V291.321C177.5 288.312 175.577 285.011 173.224 283.984L133.276 266.515Z" fill="#312B4C" stroke="#312B4C" stroke-width="1.42958" stroke-linecap="round" stroke-linejoin="round"/>
<path d="M129.5 320.823C129.5 323.842 127.557 325.465 125.18 324.434L84.8198 306.903C82.4426 305.872 80.5 302.56 80.5 299.54V291.666C80.5 288.646 82.4426 287.024 84.8198 288.054L125.18 305.585C127.557 306.617 129.5 309.929 129.5 312.948V320.823Z" fill="#E4E1FD" stroke="#312B4C" stroke-width="1.42958" stroke-linecap="round" stroke-linejoin="round"/>
<path d="M129.5 320.823C129.5 323.842 131.443 325.465 133.82 324.434L174.18 306.903C176.557 305.872 178.5 302.56 178.5 299.54V291.666C178.5 288.646 176.557 287.024 174.18 288.054L133.82 305.585C131.443 306.617 129.5 309.929 129.5 312.948V320.823Z" fill="#E4E1FD" stroke="#312B4C" stroke-width="1.42958" stroke-linecap="round" stroke-linejoin="round"/>
<path d="M84.2651 287.603C81.9116 286.582 81.9116 284.907 84.2651 283.885L124.223 266.511C126.577 265.489 130.428 265.489 132.777 266.511L172.735 283.885C175.088 284.907 175.088 286.582 172.735 287.603L132.777 304.978C130.423 306 126.572 306 124.223 304.978L84.2651 287.603Z" fill="#E4E1FD" stroke="#312B4C" stroke-width="1.42958" stroke-linecap="round" stroke-linejoin="round"/>
<path d="M182.276 287.514C179.923 286.487 176.072 286.487 173.724 287.514L133.776 304.984C131.423 306.011 129.5 309.312 129.5 312.32V320.168C129.5 323.176 131.423 326.477 133.776 327.504L173.724 344.974C176.077 346.001 179.928 346.001 182.276 344.974L222.224 327.504C224.577 326.477 226.5 323.176 226.5 320.168V312.32C226.5 309.312 224.577 306.011 222.224 304.984L182.276 287.514Z" fill="#312B4C" stroke="#312B4C" stroke-width="1.42958" stroke-linecap="round" stroke-linejoin="round"/>
<path d="M178.5 341.823C178.5 344.842 176.557 346.465 174.18 345.434L133.82 327.903C131.443 326.872 129.5 323.56 129.5 320.54V312.666C129.5 309.646 131.443 308.024 133.82 309.054L174.18 326.586C176.557 327.616 178.5 330.929 178.5 333.948V341.823Z" fill="#E4E1FD" stroke="#312B4C" stroke-width="1.42958" stroke-linecap="round" stroke-linejoin="round"/>
<path d="M177.5 341.823C177.5 344.842 179.443 346.465 181.82 345.434L222.18 327.903C224.557 326.872 226.5 323.56 226.5 320.54V312.666C226.5 309.646 224.557 308.024 222.18 309.054L181.82 326.586C179.443 327.616 177.5 330.929 177.5 333.948V341.823Z" fill="#E4E1FD" stroke="#312B4C" stroke-width="1.42958" stroke-linecap="round" stroke-linejoin="round"/>
<path d="M133.265 308.603C130.912 307.581 130.912 305.907 133.265 304.885L173.223 287.51C175.577 286.489 179.428 286.489 181.777 287.51L221.735 304.885C224.088 305.907 224.088 307.581 221.735 308.603L181.777 325.978C179.423 327 175.572 327 173.223 325.978L133.265 308.603Z" fill="#312B4C" stroke="#AC93BE" stroke-width="1.42958" stroke-linecap="round" stroke-linejoin="round"/>
<path d="M230.276 308.515C227.923 307.487 224.072 307.487 221.724 308.515L181.776 325.984C179.423 327.011 177.5 330.312 177.5 333.321V341.168C177.5 344.177 179.423 347.477 181.776 348.504L221.724 365.974C224.077 367.001 227.928 367.001 230.276 365.974L270.224 348.504C272.577 347.477 274.5 344.177 274.5 341.168V333.321C274.5 330.312 272.577 327.011 270.224 325.984L230.276 308.515Z" fill="#312B4C" stroke="#312B4C" stroke-width="1.42958" stroke-linecap="round" stroke-linejoin="round"/>
<path d="M226.5 362.823C226.5 365.842 224.557 367.465 222.18 366.434L181.82 348.903C179.443 347.872 177.5 344.56 177.5 341.54V333.665C177.5 330.646 179.443 329.023 181.82 330.055L222.18 347.585C224.557 348.616 226.5 351.928 226.5 354.948V362.823Z" fill="#E4E1FD" stroke="#312B4C" stroke-width="1.42958" stroke-linecap="round" stroke-linejoin="round"/>
<path d="M226.5 362.823C226.5 365.842 228.443 367.465 230.82 366.434L271.18 348.903C273.557 347.872 275.5 344.56 275.5 341.54V333.665C275.5 330.646 273.557 329.023 271.18 330.055L230.82 347.585C228.443 348.616 226.5 351.928 226.5 354.948V362.823Z" fill="#E4E1FD" stroke="#312B4C" stroke-width="1.42958" stroke-linecap="round" stroke-linejoin="round"/>
<path d="M182.265 329.603C179.912 328.582 179.912 326.907 182.265 325.885L222.223 308.511C224.577 307.489 228.428 307.489 230.777 308.511L270.735 325.885C273.088 326.907 273.088 328.582 270.735 329.603L230.777 346.978C228.423 348 224.572 348 222.223 346.978L182.265 329.603Z" fill="#E4E1FD" stroke="#312B4C" stroke-width="1.42958" stroke-linecap="round" stroke-linejoin="round"/>
<path d="M84.2757 287.514C81.9228 286.487 78.0721 286.487 75.7243 287.514L35.7757 304.984C33.4228 306.011 31.5 309.312 31.5 312.32V320.168C31.5 323.176 33.4228 326.477 35.7757 327.504L75.7243 344.974C78.0772 346.001 81.9279 346.001 84.2757 344.974L124.224 327.504C126.577 326.477 128.5 323.176 128.5 320.168V312.32C128.5 309.312 126.577 306.011 124.224 304.984L84.2757 287.514Z" fill="#AC93BE" stroke="#AC93BE" stroke-width="1.42958" stroke-linecap="round" stroke-linejoin="round"/>
<path d="M80.5 341.823C80.5 344.842 78.5574 346.465 76.1802 345.434L35.8198 327.903C33.4426 326.872 31.5 323.56 31.5 320.541V312.665C31.5 309.646 33.4426 308.023 35.8198 309.055L76.1802 326.586C78.5574 327.616 80.5 330.929 80.5 333.948V341.823Z" fill="#312B4C" stroke="#AC93BE" stroke-width="1.42958" stroke-linecap="round" stroke-linejoin="round"/>
<path d="M80.5 341.823C80.5 344.842 82.4426 346.465 84.8198 345.434L125.18 327.903C127.557 326.872 129.5 323.56 129.5 320.541V312.665C129.5 309.646 127.557 308.023 125.18 309.055L84.8198 326.586C82.4426 327.616 80.5 330.929 80.5 333.948V341.823Z" fill="#312B4C" stroke="#AC93BE" stroke-width="1.42958" stroke-linecap="round" stroke-linejoin="round"/>
<path d="M36.2651 308.603C33.9116 307.581 33.9116 305.907 36.2651 304.885L76.2233 287.51C78.5767 286.489 82.4283 286.489 84.7767 287.51L124.735 304.885C127.088 305.907 127.088 307.581 124.735 308.603L84.7767 325.978C82.4233 327 78.5717 327 76.2233 325.978L36.2651 308.603Z" fill="#312B4C" stroke="#AC93BE" stroke-width="1.42958" stroke-linecap="round" stroke-linejoin="round"/>
<path d="M136.276 327.384C133.923 326.531 130.072 326.531 127.724 327.384L87.7757 341.892C85.4228 342.746 83.5 345.487 83.5 347.986V354.503C83.5 357.002 85.4228 359.743 87.7757 360.596L127.724 375.104C130.077 375.957 133.928 375.957 136.276 375.104L176.224 360.596C178.577 359.743 180.5 357.002 180.5 354.503V347.986C180.5 345.487 178.577 342.746 176.224 341.892L136.276 327.384Z" fill="#312B4C" stroke="#312B4C" stroke-width="1.42958" stroke-linecap="round" stroke-linejoin="round"/>
<path d="M132.5 372.459C132.5 374.988 130.557 376.348 128.18 375.484L87.8198 360.796C85.4426 359.932 83.5 357.157 83.5 354.628V348.03C83.5 345.5 85.4426 344.14 87.8198 345.004L128.18 359.692C130.557 360.556 132.5 363.331 132.5 365.861V372.459Z" fill="#6140FF" stroke="#312B4C" stroke-width="1.42958" stroke-linecap="round" stroke-linejoin="round"/>
<path d="M132.5 372.459C132.5 374.988 134.443 376.348 136.82 375.484L177.18 360.796C179.557 359.932 181.5 357.157 181.5 354.628V348.03C181.5 345.5 179.557 344.14 177.18 345.004L136.82 359.692C134.443 360.556 132.5 363.331 132.5 365.861V372.459Z" fill="#E4E1FD" stroke="#312B4C" stroke-width="1.42958" stroke-linecap="round" stroke-linejoin="round"/>
<path d="M87.2651 345.324C84.9116 344.456 84.9116 343.032 87.2651 342.164L127.223 327.396C129.577 326.527 133.428 326.527 135.777 327.396L175.735 342.164C178.088 343.032 178.088 344.456 175.735 345.324L135.777 360.093C133.423 360.961 129.572 360.961 127.223 360.093L87.2651 345.324Z" fill="#E4E1FD" stroke="#312B4C" stroke-width="1.42958" stroke-linecap="round" stroke-linejoin="round"/>
<path d="M182.276 329.514C179.923 328.487 176.072 328.487 173.724 329.514L133.776 346.984C131.423 348.011 129.5 351.312 129.5 354.321V362.168C129.5 365.176 131.423 368.477 133.776 369.504L173.724 386.974C176.077 388.001 179.928 388.001 182.276 386.974L222.224 369.504C224.577 368.477 226.5 365.176 226.5 362.168V354.321C226.5 351.312 224.577 348.011 222.224 346.984L182.276 329.514Z" fill="#312B4C" stroke="#AC93BE" stroke-width="1.42958" stroke-linecap="round" stroke-linejoin="round"/>
<path d="M178.5 383.823C178.5 386.842 176.557 388.465 174.18 387.434L133.82 369.903C131.443 368.872 129.5 365.56 129.5 362.541V354.666C129.5 351.646 131.443 350.023 133.82 351.055L174.18 368.586C176.557 369.616 178.5 372.929 178.5 375.948V383.823Z" fill="#E4E1FD" stroke="#AC93BE" stroke-width="1.42958" stroke-linecap="round" stroke-linejoin="round"/>
<path d="M177.5 383.823C177.5 386.842 179.443 388.465 181.82 387.434L222.18 369.903C224.557 368.872 226.5 365.56 226.5 362.541V354.666C226.5 351.646 224.557 350.023 222.18 351.055L181.82 368.586C179.443 369.616 177.5 372.929 177.5 375.948V383.823Z" fill="#E4E1FD" stroke="#AC93BE" stroke-width="1.42958" stroke-linecap="round" stroke-linejoin="round"/>
<path d="M133.265 350.603C130.912 349.581 130.912 347.907 133.265 346.885L173.223 329.51C175.577 328.489 179.428 328.489 181.777 329.51L221.735 346.885C224.088 347.907 224.088 349.581 221.735 350.603L181.777 367.978C179.423 369 175.572 369 173.223 367.978L133.265 350.603Z" fill="#312B4C" stroke="#AC93BE" stroke-width="1.42958" stroke-linecap="round" stroke-linejoin="round"/>
<path d="M124.898 307.583H124.897L84.7338 325.159C83.4829 325.705 82.5 326.578 82.5 327.744C82.5 328.911 83.4829 329.783 84.7338 330.33L124.897 347.906C126.201 348.476 127.87 348.744 129.498 348.744C131.126 348.744 132.796 348.476 134.103 347.906H134.103L174.267 330.33L174.267 330.329C175.518 329.783 176.5 328.911 176.5 327.744C176.5 326.578 175.518 325.706 174.267 325.159L174.267 325.159L134.103 307.583C132.799 307.012 131.13 306.744 129.502 306.744C127.874 306.744 126.204 307.012 124.898 307.583Z" fill="#E4E1FD" stroke="#312B4C" stroke-width="1.42958" stroke-linecap="round" stroke-linejoin="round"/>
<path d="M84.2757 329.515C81.9228 328.487 78.0721 328.487 75.7243 329.515L35.7757 346.984C33.4228 348.011 31.5 351.312 31.5 354.321V362.168C31.5 365.177 33.4228 368.477 35.7757 369.505L75.7243 386.974C78.0772 388.001 81.9279 388.001 84.2757 386.974L124.224 369.505C126.577 368.477 128.5 365.177 128.5 362.168V354.321C128.5 351.312 126.577 348.011 124.224 346.984L84.2757 329.515Z" fill="#AC93BE" stroke="#AC93BE" stroke-width="1.42958" stroke-linecap="round" stroke-linejoin="round"/>
<path d="M80.5 383.823C80.5 386.842 78.5574 388.465 76.1802 387.434L35.8198 369.903C33.4426 368.872 31.5 365.56 31.5 362.541V354.665C31.5 351.646 33.4426 350.023 35.8198 351.055L76.1802 368.585C78.5574 369.616 80.5 372.928 80.5 375.948V383.823Z" fill="#312B4C" stroke="#AC93BE" stroke-width="1.42958" stroke-linecap="round" stroke-linejoin="round"/>
<path d="M80.5 383.823C80.5 386.842 82.4426 388.465 84.8198 387.434L125.18 369.903C127.557 368.872 129.5 365.56 129.5 362.541V354.665C129.5 351.646 127.557 350.023 125.18 351.055L84.8198 368.585C82.4426 369.616 80.5 372.928 80.5 375.948V383.823Z" fill="#E4E1FD" stroke="#AC93BE" stroke-width="1.42958" stroke-linecap="round" stroke-linejoin="round"/>
<path d="M36.2651 350.603C33.9116 349.582 33.9116 347.907 36.2651 346.885L76.2233 329.511C78.5767 328.489 82.4283 328.489 84.7767 329.511L124.735 346.885C127.088 347.907 127.088 349.582 124.735 350.603L84.7767 367.978C82.4233 369 78.5717 369 76.2233 367.978L36.2651 350.603Z" fill="#312B4C" stroke="#AC93BE" stroke-width="1.42958" stroke-linecap="round" stroke-linejoin="round"/>
<path d="M133.276 350.515C130.923 349.487 127.072 349.487 124.724 350.515L84.7757 367.984C82.4228 369.011 80.5 372.312 80.5 375.321V383.168C80.5 386.177 82.4228 389.477 84.7757 390.505L124.724 407.974C127.077 409.001 130.928 409.001 133.276 407.974L173.224 390.505C175.577 389.477 177.5 386.177 177.5 383.168V375.321C177.5 372.312 175.577 369.011 173.224 367.984L133.276 350.515Z" fill="#312B4C" stroke="#312B4C" stroke-width="1.42958" stroke-linecap="round" stroke-linejoin="round"/>
<path d="M129.5 404.823C129.5 407.842 127.557 409.465 125.18 408.434L84.8198 390.903C82.4426 389.872 80.5 386.56 80.5 383.54V375.666C80.5 372.646 82.4426 371.024 84.8198 372.054L125.18 389.586C127.557 390.617 129.5 393.929 129.5 396.948V404.823Z" fill="#E4E1FD" stroke="#312B4C" stroke-width="1.42958" stroke-linecap="round" stroke-linejoin="round"/>
<path d="M129.5 404.823C129.5 407.842 131.443 409.465 133.82 408.434L174.18 390.903C176.557 389.872 178.5 386.56 178.5 383.54V375.666C178.5 372.646 176.557 371.024 174.18 372.054L133.82 389.586C131.443 390.617 129.5 393.929 129.5 396.948V404.823Z" fill="#E4E1FD" stroke="#312B4C" stroke-width="1.42958" stroke-linecap="round" stroke-linejoin="round"/>
<path d="M84.2651 371.603C81.9116 370.582 81.9116 368.907 84.2651 367.885L124.223 350.511C126.577 349.489 130.428 349.489 132.777 350.511L172.735 367.885C175.088 368.907 175.088 370.582 172.735 371.603L132.777 388.978C130.423 390 126.572 390 124.223 388.978L84.2651 371.603Z" fill="#E4E1FD" stroke="#312B4C" stroke-width="1.42958" stroke-linecap="round" stroke-linejoin="round"/>
<path d="M85.1864 424.95C87.1241 420.801 79.8811 413.539 69.009 408.731C58.1363 403.923 47.7514 403.389 45.8137 407.538C43.8755 411.688 51.1185 418.949 61.9907 423.758C72.8633 428.566 83.2482 429.1 85.1864 424.95Z" fill="#B2A9F8" stroke="#312B4C" stroke-width="1.42958" stroke-linecap="round" stroke-linejoin="round"/>
<path d="M69.6005 409.233C58.774 404.339 48.4352 403.793 46.5 408.016L48.9776 402.588C50.9066 398.366 61.2516 398.905 72.0781 403.806C82.9052 408.705 90.1214 416.095 88.1862 420.316L85.7086 425.744C87.6377 421.522 80.4276 414.127 69.6005 409.233Z" fill="#6140FF" stroke="#312B4C" stroke-width="1.42958" stroke-linecap="round" stroke-linejoin="round"/>
<path d="M67.5 402.78L65.649 406.744C64.5862 406.354 63.5346 406.006 62.5 405.701L64.3474 401.744C65.3769 402.044 66.4295 402.391 67.5 402.78Z" fill="#FF7E4D" stroke="#312B4C" stroke-width="1.42958"/>
<path d="M61.5 401.411L59.6063 405.744C56.5918 405.078 53.8155 404.826 51.5 405.038L53.2985 400.923C55.4605 400.576 58.2818 400.731 61.5 401.411Z" fill="#312B4C" stroke="#312B4C" stroke-width="1.42958"/>
<path d="M69.6005 409.233C58.774 404.339 48.4352 403.793 46.5 408.016L48.9776 402.588C50.9066 398.366 61.2516 398.905 72.0781 403.806C82.9052 408.705 90.1214 416.095 88.1862 420.316L85.7086 425.744C87.6377 421.522 80.4276 414.127 69.6005 409.233Z" stroke="#312B4C" stroke-width="1.42958" stroke-linecap="round" stroke-linejoin="round"/>
<path d="M56.5 290.744H109.5V306.14C109.5 311.998 97.6349 316.744 83.0025 316.744C68.3651 316.744 56.5046 311.998 56.5046 306.14V290.744H56.5Z" fill="#6140FF" stroke="#6140FF" stroke-width="1.42958" stroke-linecap="round" stroke-linejoin="round"/>
<path d="M56.5046 306.171C56.5046 310.386 62.6263 314.027 71.5 315.744L67.6893 292.718L65.068 290.744H56.5V306.166L56.5046 306.171Z" fill="#312B4C" stroke="#6140FF" stroke-width="1.42958" stroke-linecap="round" stroke-linejoin="round"/>
<path d="M106.072 285.688C108.256 287.251 109.5 289.061 109.5 290.985C109.5 296.928 97.6338 301.744 83.0003 301.744C68.3616 301.744 56.5 296.928 56.5 290.985C56.5 289.056 57.7494 287.246 59.9327 285.683L65.4503 281.744H100.546L106.072 285.688Z" fill="#6140FF" stroke="#6140FF" stroke-width="1.42958" stroke-linecap="round" stroke-linejoin="round"/>
<path d="M109.5 290.744C109.5 296.82 97.6338 301.744 83.0003 301.744C68.3616 301.744 56.5 296.82 56.5 290.744" stroke="#312B4C" stroke-width="1.42958" stroke-linecap="round" stroke-linejoin="round"/>
<path d="M83.0003 294.744C94.3218 294.744 103.5 290.938 103.5 286.244C103.5 281.55 94.3218 277.744 83.0003 277.744C71.6782 277.744 62.5 281.55 62.5 286.244C62.5 290.938 71.6782 294.744 83.0003 294.744Z" fill="#6140FF" stroke="#6140FF" stroke-width="1.42958" stroke-linecap="round" stroke-linejoin="round"/>
<path d="M101.564 281.744C103.428 283.033 104.5 284.536 104.5 286.143C104.5 290.896 95.1352 294.744 83.5846 294.744C82.8804 294.744 82.1855 294.728 81.5 294.702" stroke="#312B4C" stroke-width="1.42958" stroke-linecap="round" stroke-linejoin="round"/>
<path d="M82.9997 290.744C92.6648 290.744 100.5 287.61 100.5 283.744C100.5 279.878 92.6648 276.744 82.9997 276.744C73.3346 276.744 65.5 279.878 65.5 283.744C65.5 287.61 73.3346 290.744 82.9997 290.744Z" fill="#312B4C" stroke="#6140FF" stroke-width="1.42958" stroke-linecap="round" stroke-linejoin="round"/>
<path d="M81.6303 246.911L93.5 241.744C93.204 241.872 92.9495 242.108 92.7489 242.447C92.1579 243.474 92.2626 245.18 93.0131 246.577L81.1434 251.744C80.3969 250.348 80.2882 248.642 80.8792 247.615C81.0752 247.275 81.3343 247.039 81.6303 246.911Z" fill="#6140FF" stroke="#6140FF" stroke-width="1.42958" stroke-linecap="round" stroke-linejoin="round"/>
<path d="M81.5 251.999L92.9708 246.744L101.5 263.489L90.0247 268.744L81.5 251.999Z" fill="#6140FF" stroke="#6140FF" stroke-width="1.42958" stroke-linecap="round" stroke-linejoin="round"/>
<path d="M102.23 263.749L90.1614 269.049C92.4283 273.319 93.0662 278.493 91.7711 282.213L89.5 288.744L101.568 283.439L103.839 276.908C105.13 273.188 104.496 268.019 102.23 263.744V263.749Z" fill="#6140FF" stroke="#6140FF" stroke-width="1.42958" stroke-linecap="round" stroke-linejoin="round"/>
<path d="M80.5 220.147L92.0185 214.744L100.5 218.336L88.977 223.744L80.5 220.147Z" fill="#B2A9F8" stroke="#312B4C" stroke-width="1.42958" stroke-linecap="round" stroke-linejoin="round"/>
<path d="M102.741 258.789L100.343 262.058C100.109 262.379 99.8202 262.61 99.5 262.744L111.259 257.7C111.579 257.56 111.863 257.33 112.102 257.013L114.5 253.744L102.741 258.789Z" fill="#6140FF" stroke="#312B4C" stroke-width="1.42958" stroke-linecap="round" stroke-linejoin="round"/>
<path d="M104.11 230.974C102.622 228.838 101.56 226.174 101.111 223.46L100.336 218.744L88.5 224.027L89.276 228.742C89.9564 232.859 92.2742 236.257 92.2742 236.257L101.665 249.744L113.5 244.461L104.11 230.974Z" fill="#B2A9F8" stroke="#312B4C" stroke-width="1.42958" stroke-linecap="round" stroke-linejoin="round"/>
<path d="M100.5 218.744L88.5 223.744" stroke="#312B4C" stroke-width="1.42958" stroke-linecap="round" stroke-linejoin="round"/>
<path d="M87.577 208.744L80.0666 220.381L88.6809 223.901L89.4478 228.624C89.892 231.343 90.9418 234.012 92.4135 236.153L101.7 249.663C102.651 251.048 103.284 252.815 103.454 254.558C103.625 256.3 103.315 257.871 102.593 258.903L100.206 262.333C99.6457 263.138 98.7932 263.405 97.8825 263.068C96.9132 262.675 96.0653 261.789 95.4774 260.591L93.952 257.508L83.5529 247.825C83.2923 247.584 83.0186 247.407 82.754 247.296C81.9916 246.984 81.2555 247.226 80.825 248.001C80.2416 249.054 80.3449 250.801 81.085 252.231L89.7888 269.095C91.9871 273.356 92.6063 278.517 91.3501 282.228L89.1473 288.744L65.1137 278.925L59.9634 255.525C55.7683 236.47 60.8427 219.48 71.9825 215.27L87.5724 208.749L87.577 208.744Z" fill="#312B4C" stroke="#312B4C" stroke-width="1.42958" stroke-linecap="round" stroke-linejoin="round"/>
<path d="M89.5 288.744L68.5 279.744" stroke="#6140FF" stroke-width="1.42958" stroke-linecap="round" stroke-linejoin="round"/>
<path d="M102.5 249.207L114.634 243.744C115.62 245.174 116.276 246.998 116.453 248.796C116.629 250.594 116.308 252.216 115.56 253.281L103.426 258.744C104.169 257.679 104.49 256.057 104.318 254.259C104.142 252.46 103.486 250.636 102.5 249.207Z" fill="#6140FF" stroke="#312B4C" stroke-width="1.42958" stroke-linecap="round" stroke-linejoin="round"/>
<path d="M102.5 248.744L114.5 243.744" stroke="#312B4C" stroke-width="1.42958" stroke-linecap="round" stroke-linejoin="round"/>
<path d="M79.5322 215.812C79.2809 213.636 80.5294 211.181 82.3034 210.359L87.3697 208.015C89.1433 207.194 90.7984 208.304 91.0497 210.486L91.5 214.412L79.987 219.744L79.5367 215.818L79.5322 215.812Z" fill="#B2A9F8" stroke="#312B4C" stroke-width="1.42958" stroke-linecap="round" stroke-linejoin="round"/>
<path d="M92.5 214.744L80.5 219.744" stroke="#312B4C" stroke-width="1.42958" stroke-linecap="round" stroke-linejoin="round"/>
<path d="M65.56 283.608C65.56 282.963 65.7693 282.338 66.1606 281.744H65.56L59.9748 285.736C57.7602 287.321 56.5 289.154 56.5 291.109C56.5 295.285 62.2807 298.911 70.7632 300.744L87.5 290.632C86.1583 290.764 84.7623 290.836 83.3252 290.836C73.5148 290.836 65.56 287.605 65.56 283.613V283.608Z" fill="#312B4C" stroke="#6140FF" stroke-width="1.42958" stroke-linecap="round" stroke-linejoin="round"/>
<path d="M57.5 292.744C58.7374 295.596 62.3965 298.071 67.5 299.744" stroke="#6140FF" stroke-width="1.42958" stroke-linecap="round" stroke-linejoin="round"/>
<path d="M80.5 293.744C70.3966 293.346 62.5 289.914 62.5 285.744" stroke="#6140FF" stroke-width="1.42958" stroke-linecap="round" stroke-linejoin="round"/>
<path d="M61.5 245.744L59.5 242.744" stroke="#6140FF" stroke-width="1.42958" stroke-linecap="round" stroke-linejoin="round"/>
<path d="M62.5 238.744L60.5 236.744" stroke="#6140FF" stroke-width="1.42958" stroke-linecap="round" stroke-linejoin="round"/>
<path d="M63.5 232.744L61.5 229.744" stroke="#6140FF" stroke-width="1.42958" stroke-linecap="round" stroke-linejoin="round"/>
<path d="M66.5 227.744L64.5 222.744" stroke="#6140FF" stroke-width="1.42958" stroke-linecap="round" stroke-linejoin="round"/>
<path d="M70.9416 222.744L70.5 216.744" stroke="#6140FF" stroke-width="1.42958" stroke-linecap="round" stroke-linejoin="round"/>
<path d="M129 359.744C140.874 359.744 150.5 355.938 150.5 351.244C150.5 346.55 140.874 342.744 129 342.744C117.126 342.744 107.5 346.55 107.5 351.244C107.5 355.938 117.126 359.744 129 359.744Z" fill="#FF7E4D" stroke="#312B4C" stroke-width="1.42958" stroke-linecap="round" stroke-linejoin="round"/>
<path d="M129 359.934C140.876 359.934 150.5 356.269 150.5 351.744V357.555C150.5 362.079 140.876 365.744 129 365.744C117.125 365.744 107.5 362.079 107.5 357.555V351.744C107.5 356.269 117.125 359.934 129 359.934Z" fill="#6140FF" stroke="#312B4C" stroke-width="1.42958" stroke-linecap="round" stroke-linejoin="round"/>
<path d="M132.5 364.744V360.081C133.528 360.003 134.53 359.89 135.5 359.744V364.396C134.533 364.546 133.531 364.662 132.5 364.744Z" fill="#FF7E4D" stroke="#312B4C" stroke-width="1.42958"/>
<path d="M139.5 363.744V359.361C142.251 358.729 144.651 357.838 146.5 356.744V360.908C144.828 362.056 142.424 363.043 139.5 363.744Z" fill="#312B4C" stroke="#312B4C" stroke-width="1.42958"/>
<path d="M129 359.934C140.876 359.934 150.5 356.269 150.5 351.744V357.555C150.5 362.079 140.876 365.744 129 365.744C117.125 365.744 107.5 362.079 107.5 357.555V351.744C107.5 356.269 117.125 359.934 129 359.934Z" stroke="#312B4C" stroke-width="1.42958" stroke-linecap="round" stroke-linejoin="round"/>
<path d="M139.5 364.744C143.292 364.069 146.428 363.024 148.5 361.744" stroke="#312B4C" stroke-width="1.42958" stroke-linecap="round" stroke-linejoin="round"/>
<path d="M129 353.744C140.874 353.744 150.5 349.938 150.5 345.244C150.5 340.55 140.874 336.744 129 336.744C117.126 336.744 107.5 340.55 107.5 345.244C107.5 349.938 117.126 353.744 129 353.744Z" fill="#FF7E4D" stroke="#312B4C" stroke-width="1.42958" stroke-linecap="round" stroke-linejoin="round"/>
<path d="M129 353.934C140.876 353.934 150.5 350.269 150.5 345.744V351.555C150.5 356.079 140.876 359.744 129 359.744C117.125 359.744 107.5 356.079 107.5 351.555V345.744C107.5 350.269 117.125 353.934 129 353.934Z" fill="#6140FF" stroke="#312B4C" stroke-width="1.42958" stroke-linecap="round" stroke-linejoin="round"/>
<path d="M132.5 358.744V354.081C133.528 354.002 134.53 353.89 135.5 353.744V358.396C134.533 358.546 133.531 358.662 132.5 358.744Z" fill="#FF7E4D" stroke="#312B4C" stroke-width="1.42958"/>
<path d="M139.5 357.744V353.361C142.251 352.728 144.651 351.838 146.5 350.744V354.908C144.828 356.056 142.424 357.043 139.5 357.744Z" fill="#312B4C" stroke="#312B4C" stroke-width="1.42958"/>
<path d="M129 353.934C140.876 353.934 150.5 350.269 150.5 345.744V351.555C150.5 356.079 140.876 359.744 129 359.744C117.125 359.744 107.5 356.079 107.5 351.555V345.744C107.5 350.269 117.125 353.934 129 353.934Z" stroke="#312B4C" stroke-width="1.42958" stroke-linecap="round" stroke-linejoin="round"/>
<path d="M139.5 358.744C143.292 358.07 146.428 357.024 148.5 355.744" stroke="#312B4C" stroke-width="1.42958" stroke-linecap="round" stroke-linejoin="round"/>
<path d="M129 347.744C140.874 347.744 150.5 343.939 150.5 339.244C150.5 334.55 140.874 330.744 129 330.744C117.126 330.744 107.5 334.55 107.5 339.244C107.5 343.939 117.126 347.744 129 347.744Z" fill="#FF7E4D" stroke="#312B4C" stroke-width="1.42958" stroke-linecap="round" stroke-linejoin="round"/>
<path d="M129 347.934C140.876 347.934 150.5 344.268 150.5 339.744V345.554C150.5 350.079 140.876 353.744 129 353.744C117.125 353.744 107.5 350.079 107.5 345.554V339.744C107.5 344.268 117.125 347.934 129 347.934Z" fill="#6140FF" stroke="#312B4C" stroke-width="1.42958" stroke-linecap="round" stroke-linejoin="round"/>
<path d="M132.5 352.744V348.082C133.528 348.003 134.53 347.89 135.5 347.744V352.396C134.533 352.546 133.531 352.663 132.5 352.744Z" fill="#FF7E4D" stroke="#312B4C" stroke-width="1.42958"/>
<path d="M139.5 351.744V347.361C142.251 346.728 144.651 345.838 146.5 344.744V348.907C144.828 350.056 142.424 351.043 139.5 351.744Z" fill="#312B4C" stroke="#312B4C" stroke-width="1.42958"/>
<path d="M129 347.934C140.876 347.934 150.5 344.268 150.5 339.744V345.554C150.5 350.079 140.876 353.744 129 353.744C117.125 353.744 107.5 350.079 107.5 345.554V339.744C107.5 344.268 117.125 347.934 129 347.934Z" stroke="#312B4C" stroke-width="1.42958" stroke-linecap="round" stroke-linejoin="round"/>
<path d="M139.5 352.744C143.292 352.07 146.428 351.024 148.5 349.744" stroke="#312B4C" stroke-width="1.42958" stroke-linecap="round" stroke-linejoin="round"/>
<path d="M119.561 340.347L119.5 339.129L121.544 339.012C121.713 337.353 122.865 336.188 125.145 335.744L125.818 337.12C124.37 337.392 123.579 338.032 123.39 338.963L127.378 338.736C127.447 338.452 127.55 338.143 127.684 337.809C127.877 337.294 128.125 336.876 128.53 336.572C129.048 336.184 129.809 335.939 130.764 335.884C133.076 335.753 134.52 336.747 134.864 338.253L136.439 338.164L136.5 339.383L134.925 339.473C134.711 340.91 133.481 341.866 131.456 342.34L130.917 340.98C132.164 340.718 132.862 340.229 133.079 339.521L129.142 339.746C129.057 340.076 128.941 340.442 128.792 340.82C128.583 341.348 128.367 341.731 127.979 342.044C127.494 342.431 126.784 342.674 125.745 342.733C123.5 342.861 121.975 341.926 121.605 340.231L119.561 340.347ZM131.053 337.303C129.914 337.368 129.635 337.833 129.422 338.619L133.074 338.411C132.837 337.696 132.142 337.242 131.053 337.303ZM125.506 341.311C126.629 341.246 126.873 340.75 127.097 339.862L123.411 340.072C123.639 340.934 124.384 341.374 125.506 341.311Z" fill="#312B4C"/>
<path d="M164 366.744C175.874 366.744 185.5 362.939 185.5 358.244C185.5 353.55 175.874 349.744 164 349.744C152.126 349.744 142.5 353.55 142.5 358.244C142.5 362.939 152.126 366.744 164 366.744Z" fill="#FF7E4D" stroke="#312B4C" stroke-width="1.42958" stroke-linecap="round" stroke-linejoin="round"/>
<path d="M164 365.934C175.876 365.934 185.5 362.268 185.5 357.744V363.554C185.5 368.079 175.876 371.744 164 371.744C152.125 371.744 142.5 368.079 142.5 363.554V357.744C142.5 362.268 152.125 365.934 164 365.934Z" fill="#6140FF" stroke="#312B4C" stroke-width="1.42958" stroke-linecap="round" stroke-linejoin="round"/>
<path d="M167.5 371.744V367.082C168.528 367.003 169.53 366.89 170.5 366.744V371.396C169.533 371.546 168.531 371.663 167.5 371.744Z" fill="#FF7E4D" stroke="#312B4C" stroke-width="1.42958"/>
<path d="M174.5 369.744V365.361C177.251 364.728 179.651 363.838 181.5 362.744V366.907C179.828 368.056 177.424 369.043 174.5 369.744Z" fill="#312B4C" stroke="#312B4C" stroke-width="1.42958"/>
<path d="M164 365.934C175.876 365.934 185.5 362.268 185.5 357.744V363.554C185.5 368.079 175.876 371.744 164 371.744C152.125 371.744 142.5 368.079 142.5 363.554V357.744C142.5 362.268 152.125 365.934 164 365.934Z" stroke="#312B4C" stroke-width="1.42958" stroke-linecap="round" stroke-linejoin="round"/>
<path d="M173.5 370.744C177.292 370.07 180.428 369.024 182.5 367.744" stroke="#312B4C" stroke-width="1.42958" stroke-linecap="round" stroke-linejoin="round"/>
<path d="M164 360.744C175.874 360.744 185.5 356.938 185.5 352.244C185.5 347.55 175.874 343.744 164 343.744C152.126 343.744 142.5 347.55 142.5 352.244C142.5 356.938 152.126 360.744 164 360.744Z" fill="#FF7E4D" stroke="#312B4C" stroke-width="1.42958" stroke-linecap="round" stroke-linejoin="round"/>
<path d="M164 359.934C175.876 359.934 185.5 356.269 185.5 351.744V357.555C185.5 362.079 175.876 365.744 164 365.744C152.125 365.744 142.5 362.079 142.5 357.555V351.744C142.5 356.269 152.125 359.934 164 359.934Z" fill="#6140FF" stroke="#312B4C" stroke-width="1.42958" stroke-linecap="round" stroke-linejoin="round"/>
<path d="M167.5 365.744V361.081C168.528 361.002 169.53 360.89 170.5 360.744V365.396C169.533 365.546 168.531 365.662 167.5 365.744Z" fill="#FF7E4D" stroke="#312B4C" stroke-width="1.42958"/>
<path d="M174.5 364.744V360.361C177.251 359.728 179.651 358.838 181.5 357.744V361.908C179.828 363.056 177.424 364.043 174.5 364.744Z" fill="#312B4C" stroke="#312B4C" stroke-width="1.42958"/>
<path d="M164 359.934C175.876 359.934 185.5 356.269 185.5 351.744V357.555C185.5 362.079 175.876 365.744 164 365.744C152.125 365.744 142.5 362.079 142.5 357.555V351.744C142.5 356.269 152.125 359.934 164 359.934Z" stroke="#312B4C" stroke-width="1.42958" stroke-linecap="round" stroke-linejoin="round"/>
<path d="M173.5 364.744C177.292 364.07 180.428 363.024 182.5 361.744" stroke="#312B4C" stroke-width="1.42958" stroke-linecap="round" stroke-linejoin="round"/>
<path d="M164 354.744C175.874 354.744 185.5 350.938 185.5 346.244C185.5 341.549 175.874 337.744 164 337.744C152.126 337.744 142.5 341.549 142.5 346.244C142.5 350.938 152.126 354.744 164 354.744Z" fill="#FF7E4D" stroke="#312B4C" stroke-width="1.42958" stroke-linecap="round" stroke-linejoin="round"/>
<path d="M164 353.934C175.876 353.934 185.5 350.269 185.5 345.744V351.554C185.5 356.079 175.876 359.744 164 359.744C152.125 359.744 142.5 356.079 142.5 351.554V345.744C142.5 350.269 152.125 353.934 164 353.934Z" fill="#6140FF" stroke="#312B4C" stroke-width="1.42958" stroke-linecap="round" stroke-linejoin="round"/>
<path d="M167.5 359.744V355.082C168.528 355.003 169.53 354.89 170.5 354.744V359.396C169.533 359.546 168.531 359.662 167.5 359.744Z" fill="#FF7E4D" stroke="#312B4C" stroke-width="1.42958"/>
<path d="M174.5 358.744V354.361C177.251 353.728 179.651 352.838 181.5 351.744V355.908C179.828 357.056 177.424 358.043 174.5 358.744Z" fill="#312B4C" stroke="#312B4C" stroke-width="1.42958"/>
<path d="M164 353.934C175.876 353.934 185.5 350.269 185.5 345.744V351.554C185.5 356.079 175.876 359.744 164 359.744C152.125 359.744 142.5 356.079 142.5 351.554V345.744C142.5 350.269 152.125 353.934 164 353.934Z" stroke="#312B4C" stroke-width="1.42958" stroke-linecap="round" stroke-linejoin="round"/>
<path d="M173.5 358.744C177.292 358.07 180.428 357.024 182.5 355.744" stroke="#312B4C" stroke-width="1.42958" stroke-linecap="round" stroke-linejoin="round"/>
<path d="M159 348.744C170.874 348.744 180.5 344.939 180.5 340.244C180.5 335.55 170.874 331.744 159 331.744C147.126 331.744 137.5 335.55 137.5 340.244C137.5 344.939 147.126 348.744 159 348.744Z" fill="#FF7E4D" stroke="#312B4C" stroke-width="1.42958" stroke-linecap="round" stroke-linejoin="round"/>
<path d="M159 347.934C170.876 347.934 180.5 344.269 180.5 339.744V345.554C180.5 350.079 170.876 353.744 159 353.744C147.125 353.744 137.5 350.079 137.5 345.554V339.744C137.5 344.269 147.125 347.934 159 347.934Z" fill="#6140FF" stroke="#312B4C" stroke-width="1.42958" stroke-linecap="round" stroke-linejoin="round"/>
<path d="M163.5 353.744V349.082C164.528 349.003 165.53 348.89 166.5 348.744V353.396C165.533 353.546 164.531 353.663 163.5 353.744Z" fill="#FF7E4D" stroke="#312B4C" stroke-width="1.42958"/>
<path d="M170.5 352.744V348.361C173.251 347.728 175.651 346.838 177.5 345.744V349.907C175.828 351.056 173.424 352.043 170.5 352.744Z" fill="#312B4C" stroke="#312B4C" stroke-width="1.42958"/>
<path d="M159 347.934C170.876 347.934 180.5 344.269 180.5 339.744V345.554C180.5 350.079 170.876 353.744 159 353.744C147.125 353.744 137.5 350.079 137.5 345.554V339.744C137.5 344.269 147.125 347.934 159 347.934Z" stroke="#312B4C" stroke-width="1.42958" stroke-linecap="round" stroke-linejoin="round"/>
<path d="M169.5 352.744C173.292 352.07 176.428 351.024 178.5 349.744" stroke="#312B4C" stroke-width="1.42958" stroke-linecap="round" stroke-linejoin="round"/>
<path d="M166 340.744C177.874 340.744 187.5 336.938 187.5 332.244C187.5 327.55 177.874 323.744 166 323.744C154.126 323.744 144.5 327.55 144.5 332.244C144.5 336.938 154.126 340.744 166 340.744Z" fill="#FF7E4D" stroke="#312B4C" stroke-width="1.42958" stroke-linecap="round" stroke-linejoin="round"/>
<path d="M166 340.934C177.876 340.934 187.5 337.269 187.5 332.744V338.555C187.5 343.079 177.876 346.744 166 346.744C154.124 346.744 144.5 343.079 144.5 338.555V332.744C144.5 337.269 154.124 340.934 166 340.934Z" fill="#6140FF" stroke="#312B4C" stroke-width="1.42958" stroke-linecap="round" stroke-linejoin="round"/>
<path d="M169.5 345.744V341.082C170.528 341.003 171.53 340.89 172.5 340.744V345.396C171.533 345.546 170.531 345.663 169.5 345.744Z" fill="#FF7E4D" stroke="#312B4C" stroke-width="1.42958"/>
<path d="M176.5 344.744V340.361C179.251 339.728 181.651 338.838 183.5 337.744V341.907C181.828 343.056 179.424 344.043 176.5 344.744Z" fill="#312B4C" stroke="#312B4C" stroke-width="1.42958"/>
<path d="M166 340.934C177.876 340.934 187.5 337.269 187.5 332.744V338.555C187.5 343.079 177.876 346.744 166 346.744C154.124 346.744 144.5 343.079 144.5 338.555V332.744C144.5 337.269 154.124 340.934 166 340.934Z" stroke="#312B4C" stroke-width="1.42958" stroke-linecap="round" stroke-linejoin="round"/>
<path d="M175.5 345.744C179.292 345.07 182.428 344.024 184.5 342.744" stroke="#312B4C" stroke-width="1.42958" stroke-linecap="round" stroke-linejoin="round"/>
<path d="M167.62 336.737L165.878 336.744L165.872 335.538C163.523 335.4 161.954 334.694 161.5 333.342L163.511 332.978C163.787 333.837 164.636 334.318 165.947 334.45L165.935 332.098C165.536 332.05 165.104 331.983 164.64 331.896C163.921 331.77 163.345 331.615 162.944 331.369C162.431 331.055 162.141 330.601 162.139 330.038C162.132 328.674 163.662 327.848 165.834 327.68L165.829 326.751L167.57 326.744L167.575 327.673C169.605 327.833 170.871 328.579 171.388 329.783L169.408 330.068C169.133 329.328 168.492 328.905 167.501 328.761L167.512 331.083C167.975 331.141 168.487 331.218 169.015 331.315C169.75 331.45 170.278 331.586 170.695 331.821C171.207 332.116 171.497 332.54 171.5 333.153C171.506 334.477 170.057 335.353 167.613 335.531L167.62 336.737ZM164.183 329.901C164.186 330.573 164.826 330.749 165.929 330.892L165.919 328.738C164.881 328.861 164.18 329.259 164.183 329.901ZM169.455 333.26C169.452 332.598 168.765 332.442 167.518 332.289L167.529 334.464C168.774 334.35 169.459 333.922 169.455 333.26Z" fill="#312B4C"/>
<path d="M126 374.744C137.874 374.744 147.5 370.938 147.5 366.244C147.5 361.55 137.874 357.744 126 357.744C114.126 357.744 104.5 361.55 104.5 366.244C104.5 370.938 114.126 374.744 126 374.744Z" fill="#FF7E4D" stroke="#312B4C" stroke-width="1.42958" stroke-linecap="round" stroke-linejoin="round"/>
<path d="M126 373.934C137.876 373.934 147.5 370.269 147.5 365.744V371.555C147.5 376.079 137.876 379.744 126 379.744C114.124 379.744 104.5 376.079 104.5 371.555V365.744C104.5 370.269 114.124 373.934 126 373.934Z" fill="#6140FF" stroke="#312B4C" stroke-width="1.42958" stroke-linecap="round" stroke-linejoin="round"/>
<path d="M130.5 379.744V375.081C131.528 375.003 132.53 374.89 133.5 374.744V379.396C132.534 379.546 131.531 379.662 130.5 379.744Z" fill="#FF7E4D" stroke="#312B4C" stroke-width="1.42958"/>
<path d="M137.5 378.744V374.361C140.251 373.729 142.651 372.838 144.5 371.744V375.908C142.828 377.056 140.424 378.043 137.5 378.744Z" fill="#312B4C" stroke="#312B4C" stroke-width="1.42958"/>
<path d="M126 373.934C137.876 373.934 147.5 370.269 147.5 365.744V371.555C147.5 376.079 137.876 379.744 126 379.744C114.124 379.744 104.5 376.079 104.5 371.555V365.744C104.5 370.269 114.124 373.934 126 373.934Z" stroke="#312B4C" stroke-width="1.42958" stroke-linecap="round" stroke-linejoin="round"/>
<path d="M136.5 378.744C140.292 378.07 143.428 377.024 145.5 375.744" stroke="#312B4C" stroke-width="1.42958" stroke-linecap="round" stroke-linejoin="round"/>
<path d="M117.564 367.348L117.5 366.128L119.664 366.012C119.844 364.353 121.063 363.188 123.477 362.744L124.19 364.12C122.656 364.393 121.818 365.032 121.619 365.963L125.841 365.736C125.915 365.451 126.023 365.143 126.166 364.81C126.37 364.294 126.632 363.876 127.061 363.572C127.61 363.184 128.415 362.939 129.426 362.884C131.875 362.753 133.404 363.747 133.768 365.253L135.435 365.164L135.5 366.383L133.832 366.473C133.606 367.909 132.304 368.866 130.158 369.34L129.589 367.98C130.909 367.718 131.649 367.229 131.878 366.522L127.709 366.746C127.62 367.076 127.497 367.442 127.338 367.82C127.117 368.348 126.888 368.731 126.478 369.045C125.965 369.431 125.212 369.673 124.113 369.733C121.735 369.86 120.12 368.927 119.728 367.231L117.564 367.348ZM129.733 364.304C128.526 364.369 128.231 364.833 128.005 365.619L131.873 365.411C131.621 364.696 130.886 364.242 129.733 364.304ZM123.859 368.31C125.048 368.247 125.307 367.75 125.544 366.862L121.642 367.072C121.883 367.934 122.671 368.374 123.859 368.31Z" fill="#312B4C"/>
<path d="M115.926 453.538C126.128 447.265 132.417 438.914 129.973 434.886C127.529 430.858 117.277 432.678 107.075 438.951C96.8724 445.224 90.5831 453.574 93.0269 457.602C95.4713 461.631 105.723 459.811 115.926 453.538Z" fill="#B2A9F8" stroke="#312B4C" stroke-width="1.42958" stroke-linecap="round" stroke-linejoin="round"/>
<path d="M116.053 452.754C126.102 446.696 132.296 438.635 129.888 434.744L132.981 439.741C135.389 443.632 129.195 451.693 119.145 457.75C109.096 463.808 99.0007 465.566 96.5927 461.675L93.5 456.679C95.908 460.569 106.003 458.812 116.053 452.754Z" fill="#6140FF" stroke="#312B4C" stroke-width="1.42958" stroke-linecap="round" stroke-linejoin="round"/>
<path d="M121.843 455.744L119.5 451.805C120.431 451.13 121.32 450.441 122.162 449.744L124.5 453.674C123.663 454.373 122.775 455.065 121.843 455.744Z" fill="#FF7E4D" stroke="#312B4C" stroke-width="1.42958"/>
<path d="M126.765 451.744L124.5 447.925C126.61 445.841 128.276 443.727 129.349 441.744L131.5 445.371C130.612 447.304 128.993 449.504 126.765 451.744Z" fill="#312B4C" stroke="#312B4C" stroke-width="1.42958"/>
<path d="M116.053 452.754C126.102 446.696 132.296 438.635 129.888 434.744L132.981 439.741C135.389 443.632 129.195 451.693 119.145 457.75C109.096 463.808 99.0007 465.566 96.5927 461.675L93.5 456.679C95.908 460.569 106.003 458.812 116.053 452.754Z" stroke="#312B4C" stroke-width="1.42958" stroke-linecap="round" stroke-linejoin="round"/>
<path d="M126.5 452.744C129.386 449.978 131.476 447.19 132.5 444.744" stroke="#312B4C" stroke-width="1.42958" stroke-linecap="round" stroke-linejoin="round"/>
<path d="M105.217 445.214C95.0956 447.849 86.6738 440.405 86.5027 428.671C86.3295 416.816 94.5541 404.937 104.783 402.275C114.905 399.639 123.327 407.083 123.497 418.818C123.671 430.672 115.446 442.552 105.219 445.214H105.217Z" fill="#4D3DCE" stroke="#312B4C" stroke-width="1.42958" stroke-linecap="round" stroke-linejoin="round"/>
<path d="M117.444 435.639L114.695 433.559C114.478 433.395 114.436 433.095 114.599 432.88L116.834 429.945C116.994 429.735 117.295 429.682 117.523 429.823L120.265 431.521C120.503 431.668 120.572 431.974 120.418 432.202L118.189 435.519C118.026 435.763 117.681 435.818 117.444 435.639Z" fill="#312B4C" stroke="#312B4C" stroke-width="0.953051"/>
<path d="M121.409 426.695L118.769 425.323C118.559 425.214 118.453 424.951 118.52 424.704L118.948 423.114C119.029 422.811 119.333 422.659 119.591 422.793L122.231 424.166C122.441 424.275 122.547 424.538 122.48 424.785L122.052 426.374C121.971 426.677 121.667 426.829 121.409 426.695Z" fill="#B2A9F8" stroke="#312B4C" stroke-width="0.953051"/>
<path d="M102.217 442.238C92.096 444.754 83.6724 437.647 83.5027 426.448C83.3303 415.129 91.5547 403.79 101.783 401.251C111.904 398.734 120.328 405.841 120.497 417.041C120.67 428.359 112.445 439.698 102.217 442.238Z" fill="#FF7E4D" stroke="#312B4C" stroke-width="1.42958" stroke-linecap="round" stroke-linejoin="round"/>
<path d="M101.314 434.323C98.151 435.177 95.5716 434.733 93.5764 432.991C91.5808 431.249 90.5567 428.47 90.5022 424.655C90.4472 420.93 91.4237 417.626 93.4269 414.742C95.3885 411.893 97.9779 410.033 101.194 409.164C104.147 408.366 106.591 408.706 108.518 410.18C110.456 411.663 111.448 414.041 111.498 417.311C111.532 419.603 111.129 421.653 110.288 423.458C109.44 425.278 108.214 426.404 106.609 426.838C105.894 427.03 105.295 427.001 104.81 426.747C104.263 426.457 103.951 425.989 103.87 425.342L103.765 425.371C103.168 426.963 102.097 427.967 100.555 428.381C99.2036 428.745 98.1405 428.464 97.3656 427.538C96.5821 426.634 96.1764 425.269 96.1504 423.442C96.1239 421.655 96.5246 420.042 97.3521 418.603C98.1535 417.201 99.2691 416.307 100.699 415.922C101.309 415.756 101.875 415.772 102.393 415.967C102.938 416.195 103.328 416.545 103.564 417.019L103.668 416.989L103.828 415.427L105.645 414.937L105.53 423.239C105.52 424.368 105.946 424.815 106.811 424.582C107.656 424.354 108.327 423.589 108.825 422.289C109.304 421.035 109.531 419.555 109.508 417.848C109.468 415.133 108.678 413.198 107.138 412.042C105.564 410.865 103.561 410.606 101.128 411.261C98.5647 411.951 96.4856 413.522 94.8827 415.972C93.2753 418.434 92.4923 421.208 92.5369 424.298C92.5814 427.346 93.4188 429.598 95.0503 431.054C96.6557 432.515 98.7403 432.903 101.301 432.21C103.453 431.629 105.279 430.77 106.776 429.639L106.805 431.683C105.352 432.844 103.519 433.724 101.306 434.323H101.314ZM100.895 424.943C101.547 424.766 102.047 424.336 102.396 423.654C102.728 422.958 102.891 422.174 102.878 421.302C102.864 420.465 102.692 419.833 102.354 419.408C102.016 418.983 101.539 418.854 100.924 419.02C100.317 419.183 99.8425 419.598 99.5098 420.264C99.1826 420.944 99.0255 421.72 99.0385 422.592C99.0515 423.429 99.2166 424.063 99.5333 424.494C99.84 424.957 100.293 425.106 100.895 424.946V424.943Z" fill="#312B4C"/>
<path d="M245.153 74.7493L235.535 90.0891C234.419 91.8745 233.5 95.0557 233.5 97.1597V129.832C233.5 133.807 236.499 135.775 240.164 134.202C243.65 132.705 247.345 128.507 248.386 124.871L260.5 82.3711L245.153 74.7442V74.7493Z" fill="#312B4C" stroke="#312B4C" stroke-width="1.42958" stroke-linecap="round" stroke-linejoin="round"/>
<path d="M220.879 63.7442L197.734 87.8386L194.5 123.854L198.403 141.608C198.674 142.833 199.507 143.861 200.657 144.383C201.806 144.905 203.14 144.859 204.248 144.261C209.965 141.193 213.792 135.531 214.487 129.125L217.384 102.448L238.5 82.3492L220.879 63.7442Z" fill="#312B4C" stroke="#312B4C" stroke-width="1.42958" stroke-linecap="round" stroke-linejoin="round"/>
<path d="M197.049 58.7442L161.633 80.0181L139.816 117.719L132.641 141.452C132.351 142.417 132.513 143.464 133.088 144.292C133.662 145.12 134.582 145.638 135.588 145.704C142.322 146.136 148.796 143.032 152.668 137.509L180.711 97.5422L236.5 76.9238L197.044 58.7493L197.049 58.7442Z" fill="#312B4C" stroke="#312B4C" stroke-width="1.42958" stroke-linecap="round" stroke-linejoin="round"/>
<path d="M356.171 43.7614L353.578 46.6782C342.572 59.0568 325.221 63.6505 309.528 58.3352L244.552 36.3423C237.857 34.0759 230.577 34.2233 223.978 36.7641L154.819 63.3659C149.908 65.2563 145.541 68.3611 142.246 72.4619L100.921 123.928C98.4804 126.967 99.2633 131.022 102.659 132.932C108.104 136.002 116.502 135.25 121.317 131.261L132.409 122.078L159.699 92.2393C161.148 90.7453 163.141 89.912 165.22 89.9272C169.673 89.9628 178.158 89.6071 186.429 86.9037L211.975 78.5598L244.994 87.671C249.107 88.8042 252.605 91.5127 254.908 95.1053L256.087 96.9499L243.8 97.2955C229.026 97.7122 224.71 93.8095 214.314 94.963L203.384 96.1775C195.316 97.0719 188.915 101.864 187.741 108.983L187.731 109.054C187.273 111.824 187.944 114.664 189.592 116.936C191.239 119.212 193.73 120.732 196.505 121.158L239.763 127.846L269.864 136.561C275.858 138.293 282.096 139.005 288.323 138.659L331.855 136.251C341.733 135.702 351.342 132.816 359.882 127.82L399.5 102.885L356.156 43.7563L356.171 43.7614Z" fill="#DABCEE" stroke="#312B4C" stroke-width="1.42958" stroke-linecap="round" stroke-linejoin="round"/>
<path d="M256.5 97.7442L255.34 95.8973C253.079 92.3002 249.633 89.5934 245.587 88.4537L239.5 86.7442" stroke="#312B4C" stroke-width="1.42958" stroke-linecap="round" stroke-linejoin="round"/>
<path d="M194.5 120.744C195.328 121.06 196.207 121.284 197.116 121.406L214.5 123.744" stroke="#312B4C" stroke-width="1.42958" stroke-linecap="round" stroke-linejoin="round"/>
<path d="M223.5 95.1805C220.821 94.7518 218.077 94.5569 214.668 94.9801L203.922 96.3109C201.208 96.645 198.689 97.4802 196.5 98.7442" stroke="#312B4C" stroke-width="1.42958" stroke-linecap="round" stroke-linejoin="round"/>
<path d="M256.5 96.7493L244.012 97.0943C240.266 97.1958 237.182 97.0334 234.5 96.7442" stroke="#312B4C" stroke-width="1.42958" stroke-linecap="round" stroke-linejoin="round"/>
<path d="M256.5 97.7442L261.212 97.6634C271.111 97.4266 276.5 89.7442 276.5 89.7442" stroke="#312B4C" stroke-width="1.42958" stroke-linecap="round" stroke-linejoin="round"/>
<path d="M269.5 89.7442L272.5 84.7442" stroke="#312B4C" stroke-width="1.42958" stroke-linecap="round" stroke-linejoin="round"/>
<path d="M210.5 73.7442L211.5 78.7442" stroke="#312B4C" stroke-width="1.42958" stroke-linecap="round" stroke-linejoin="round"/>
<path d="M161.5 89.7442L159.5 87.7442" stroke="#312B4C" stroke-width="1.42958" stroke-linecap="round" stroke-linejoin="round"/>
<path d="M130.5 116.744L132.5 118.744" stroke="#312B4C" stroke-width="1.42958" stroke-linecap="round" stroke-linejoin="round"/>
<path d="M143.5 110.744L160.221 92.5039C161.678 90.9195 163.745 90.0164 165.909 90.0315C170.405 90.0567 178.816 89.6833 187.014 87.0293L212.6 78.7442L234.5 85.122" stroke="#312B4C" stroke-width="1.42958" stroke-linecap="round" stroke-linejoin="round"/>
<path d="M209.919 120.744L210.485 111.502C210.706 107.885 208.416 104.511 204.972 103.723L196.372 101.744C188.88 106.051 189.015 115.855 194.192 118.421" fill="#FF7F3E"/>
<path d="M209.919 120.744L210.485 111.502C210.706 107.885 208.416 104.511 204.972 103.723L196.372 101.744C188.88 106.051 189.015 115.855 194.192 118.421" stroke="#312B4C" stroke-width="1.42958" stroke-linecap="round" stroke-linejoin="round"/>
<path d="M408.389 -16.2558L355.488 38.6988C354.289 39.9449 354.167 41.8714 355.201 43.2571L400.874 104.49C402.574 106.8 405.954 107.441 408.389 105.915L461.5 60.3158" fill="#312B4C"/>
<path d="M408.389 -16.2558L355.488 38.6988C354.289 39.9449 354.167 41.8714 355.201 43.2571L400.874 104.49C402.574 106.8 405.954 107.441 408.389 105.915L461.5 60.3158L408.389 -16.2558Z" stroke="#312B4C" stroke-width="1.42958" stroke-linecap="round" stroke-linejoin="round"/>
<path d="M279.276 330.514C276.923 329.487 273.072 329.487 270.724 330.514L230.776 347.984C228.423 349.011 226.5 352.312 226.5 355.321V363.168C226.5 366.176 228.423 369.477 230.776 370.504L270.724 387.974C273.077 389.001 276.928 389.001 279.276 387.974L319.224 370.504C321.577 369.477 323.5 366.176 323.5 363.168V355.321C323.5 352.312 321.577 349.011 319.224 347.984L279.276 330.514Z" fill="#AC93BE" stroke="#AC93BE" stroke-width="1.42958" stroke-linecap="round" stroke-linejoin="round"/>
<path d="M275.5 383.823C275.5 386.842 273.557 388.465 271.18 387.434L230.82 369.903C228.443 368.872 226.5 365.56 226.5 362.541V354.666C226.5 351.646 228.443 350.023 230.82 351.055L271.18 368.586C273.557 369.616 275.5 372.929 275.5 375.948V383.823Z" fill="#E4E1FD" stroke="#AC93BE" stroke-width="1.42958" stroke-linecap="round" stroke-linejoin="round"/>
<path d="M275.5 383.823C275.5 386.842 277.443 388.465 279.82 387.434L320.18 369.903C322.557 368.872 324.5 365.56 324.5 362.541V354.666C324.5 351.646 322.557 350.023 320.18 351.055L279.82 368.586C277.443 369.616 275.5 372.929 275.5 375.948V383.823Z" fill="#312B4C" stroke="#AC93BE" stroke-width="1.42958" stroke-linecap="round" stroke-linejoin="round"/>
<path d="M231.265 351.603C228.912 350.581 228.912 348.907 231.265 347.885L271.223 330.51C273.577 329.489 277.428 329.489 279.777 330.51L319.735 347.885C322.088 348.907 322.088 350.581 319.735 351.603L279.777 368.978C277.423 370 273.572 370 271.223 368.978L231.265 351.603Z" fill="#312B4C" stroke="#AC93BE" stroke-width="1.42958" stroke-linecap="round" stroke-linejoin="round"/>
<path d="M230.276 350.515C227.923 349.487 224.072 349.487 221.724 350.515L181.776 367.984C179.423 369.011 177.5 372.312 177.5 375.321V383.168C177.5 386.177 179.423 389.477 181.776 390.505L221.724 407.974C224.077 409.001 227.928 409.001 230.276 407.974L270.224 390.505C272.577 389.477 274.5 386.177 274.5 383.168V375.321C274.5 372.312 272.577 369.011 270.224 367.984L230.276 350.515Z" fill="#312B4C" stroke="#312B4C" stroke-width="1.42958" stroke-linecap="round" stroke-linejoin="round"/>
<path d="M226.5 404.823C226.5 407.842 224.557 409.465 222.18 408.434L181.82 390.903C179.443 389.872 177.5 386.56 177.5 383.54V375.666C177.5 372.646 179.443 371.024 181.82 372.054L222.18 389.586C224.557 390.617 226.5 393.929 226.5 396.948V404.823Z" fill="#E4E1FD" stroke="#312B4C" stroke-width="1.42958" stroke-linecap="round" stroke-linejoin="round"/>
<path d="M226.5 404.823C226.5 407.842 228.443 409.465 230.82 408.434L271.18 390.903C273.557 389.872 275.5 386.56 275.5 383.54V375.666C275.5 372.646 273.557 371.024 271.18 372.054L230.82 389.586C228.443 390.617 226.5 393.929 226.5 396.948V404.823Z" fill="#E4E1FD" stroke="#312B4C" stroke-width="1.42958" stroke-linecap="round" stroke-linejoin="round"/>
<path d="M182.265 371.603C179.912 370.582 179.912 368.907 182.265 367.885L222.223 350.511C224.577 349.489 228.428 349.489 230.777 350.511L270.735 367.885C273.088 368.907 273.088 370.582 270.735 371.603L230.777 388.978C228.423 390 224.572 390 222.223 388.978L182.265 371.603Z" fill="#E4E1FD" stroke="#312B4C" stroke-width="1.42958" stroke-linecap="round" stroke-linejoin="round"/>
<path d="M182.276 372.515C179.923 371.487 176.072 371.487 173.724 372.515L133.776 389.984C131.423 391.011 129.5 394.312 129.5 397.321V405.168C129.5 408.177 131.423 411.477 133.776 412.504L173.724 429.974C176.077 431.001 179.928 431.001 182.276 429.974L222.224 412.504C224.577 411.477 226.5 408.177 226.5 405.168V397.321C226.5 394.312 224.577 391.011 222.224 389.984L182.276 372.515Z" fill="#AC93BE" stroke="#AC93BE" stroke-width="1.42958" stroke-linecap="round" stroke-linejoin="round"/>
<path d="M178.5 425.823C178.5 428.842 176.557 430.465 174.18 429.434L133.82 411.903C131.443 410.872 129.5 407.56 129.5 404.54V396.665C129.5 393.646 131.443 392.023 133.82 393.055L174.18 410.585C176.557 411.616 178.5 414.928 178.5 417.948V425.823Z" fill="#312B4C" stroke="#AC93BE" stroke-width="1.42958" stroke-linecap="round" stroke-linejoin="round"/>
<path d="M177.5 425.823C177.5 428.842 179.443 430.465 181.82 429.434L222.18 411.903C224.557 410.872 226.5 407.56 226.5 404.54V396.665C226.5 393.646 224.557 392.023 222.18 393.055L181.82 410.585C179.443 411.616 177.5 414.928 177.5 417.948V425.823Z" fill="#312B4C" stroke="#AC93BE" stroke-width="1.42958" stroke-linecap="round" stroke-linejoin="round"/>
<path d="M133.265 393.603C130.912 392.582 130.912 390.907 133.265 389.885L173.223 372.511C175.577 371.489 179.428 371.489 181.777 372.511L221.735 389.885C224.088 390.907 224.088 392.582 221.735 393.603L181.777 410.978C179.423 412 175.572 412 173.223 410.978L133.265 393.603Z" fill="#312B4C" stroke="#AC93BE" stroke-width="1.42958" stroke-linecap="round" stroke-linejoin="round"/>
<path d="M17.1851 283.025C14.6794 282.347 10.8456 282.94 8.67184 284.341L-28.3165 308.159C-30.4954 309.561 -31.8843 313.195 -31.4056 316.239L-30.1569 324.177C-29.6781 327.22 -27.2388 330.263 -24.7331 330.94L17.8152 342.464C20.3209 343.141 24.1541 342.549 26.3279 341.148L63.3167 317.329C65.4951 315.928 66.8843 312.293 66.4056 309.249L65.1566 301.312C64.6779 298.268 62.239 295.225 59.7328 294.548L17.1851 283.025Z" fill="#312B4C" stroke="#312B4C" stroke-width="1.42958" stroke-linecap="round" stroke-linejoin="round"/>
<path d="M21.4177 338.281C21.8958 341.345 20.2411 343.289 17.7387 342.608L-24.7539 331.007C-27.2564 330.325 -29.6925 327.262 -30.1707 324.198L-31.4177 316.207C-31.8959 313.143 -30.2412 311.199 -27.7387 311.88L14.7541 323.481C17.2565 324.163 19.6928 327.226 20.1708 330.29L21.4177 338.281Z" fill="#E4E1FD" stroke="#312B4C" stroke-width="1.42958" stroke-linecap="round" stroke-linejoin="round"/>
<path d="M20.8734 337.947C21.2578 340.414 23.3554 341.445 25.5392 340.241L62.1697 316.637C64.353 315.433 65.8229 312.432 65.4391 309.965L63.9711 300.541C63.5867 298.074 61.4891 297.044 59.3058 298.247L22.83 322.848C20.6467 324.052 19.1767 327.053 19.5611 329.52L20.8734 337.947Z" fill="#E4E1FD" stroke="#312B4C" stroke-width="1.42958" stroke-linecap="round" stroke-linejoin="round"/>
<path d="M-28.4444 311.94C-30.9339 311.263 -31.2001 309.56 -29.0354 308.159L7.71412 284.341C9.87841 282.939 13.6873 282.347 16.1717 283.025L58.4446 294.548C60.9341 295.225 61.2 296.929 59.0352 298.329L22.2863 322.148C20.1215 323.549 16.313 324.141 13.8281 323.463L-28.4444 311.94Z" fill="#E4E1FD" stroke="#312B4C" stroke-width="1.42958" stroke-linecap="round" stroke-linejoin="round"/>
<path d="M5.84221 254.952C3.46599 254.226 0.579744 255.464 -0.570404 257.7L-7.57652 271.336C-8.72667 273.573 -9.58966 277.465 -9.49254 279.989L-9.17256 288.528C-8.94727 294.503 -8.97546 294.47 -3.34142 296.191L14.158 301.536C16.5337 302.262 19.4199 301.025 20.5702 298.788L27.5765 285.153C28.7264 282.916 29.5893 279.023 29.4926 276.5L29.1191 266.598C29.0254 264.076 27.0006 261.417 24.6244 260.69L5.83868 254.951L5.84221 254.952Z" fill="#312B4C" stroke="#312B4C" stroke-width="1.42958" stroke-linecap="round" stroke-linejoin="round"/>
<path d="M29.4966 276.32C29.5909 278.822 27.7145 280.282 25.3185 279.559L6.4042 273.862C4.01229 273.141 1.97706 270.502 1.87929 267.997L1.5034 258.169C1.40922 255.666 3.28595 254.207 5.68141 254.929L24.5957 260.626C26.9876 261.348 29.0232 263.986 29.121 266.491L29.4966 276.32Z" fill="#B2A9F8" stroke="#312B4C" stroke-width="1.42958" stroke-linecap="round" stroke-linejoin="round"/>
<path d="M14.5 266.744L10.05 265.268C9.25254 265.004 8.57364 264.036 8.54031 263.117L8.50127 262.002C8.46794 261.084 9.09496 260.548 9.89193 260.811L12.8922 261.806C13.6897 262.069 14.3691 263.038 14.4024 263.957L14.4981 266.738L14.5 266.744Z" fill="#312B4C"/>
<path d="M21.4986 271.485C21.5319 272.404 20.9048 272.941 20.1071 272.677L17.1062 271.682C16.3086 271.418 15.6295 270.448 15.5962 269.529L15.5 266.744L19.951 268.221C20.7481 268.486 21.4276 269.455 21.461 270.375L21.5 271.491L21.4986 271.485Z" fill="#312B4C"/>
<path d="M25.7452 278.707C28.162 279.435 29.1838 281.866 28.0176 284.11L20.8899 297.78C19.7197 300.022 16.7835 301.264 14.3666 300.536L-4.74499 294.781C-7.162 294.053 -8.18391 291.623 -7.01748 289.378L0.10999 275.708C1.28006 273.466 4.21671 272.224 6.63357 272.953L25.7452 278.707Z" fill="#6140FF" stroke="#312B4C" stroke-width="1.42958" stroke-linecap="round" stroke-linejoin="round"/>
<path d="M2.49277 267.44C2.58979 269.907 1.6984 273.716 0.505523 275.904L-6.76084 289.242C-7.95372 291.43 -9.00859 291.201 -9.1056 288.734L-9.49277 279.048C-9.58983 276.582 -8.69844 272.772 -7.50557 270.584L-0.239201 257.247C0.953672 255.059 2.00854 255.288 2.10556 257.754L2.49277 267.44Z" fill="#FF7E4D" stroke="#312B4C" stroke-width="1.42958" stroke-linecap="round" stroke-linejoin="round"/>
<path d="M10.4926 278.711C11.3764 278.949 11.751 279.751 11.3225 280.488L9.43525 283.744L4.50731 282.41C3.62408 282.171 3.24894 281.369 3.67737 280.632L4.788 278.718C5.21326 277.979 6.28749 277.574 7.17125 277.813L10.4905 278.714L10.4926 278.711Z" fill="#312B4C"/>
<path d="M13.4926 285.211C14.3764 285.473 14.751 286.355 14.3225 287.165L12.4353 290.744L7.50731 289.277C6.62408 289.015 6.24894 288.133 6.67737 287.323L8.56466 283.744L13.4926 285.211Z" fill="#312B4C"/>
<path d="M17.4924 292.081C18.3759 292.32 18.7511 293.121 18.3226 293.858L17.2112 295.771C16.7863 296.509 15.7113 296.914 14.8279 296.676L11.5079 295.775C10.6239 295.536 10.2487 294.735 10.6777 293.998L12.5655 290.744L17.494 292.078L17.4924 292.081Z" fill="#312B4C"/>
<path d="M379.479 280.701L337.897 269.873C335.754 269.316 333.547 270.622 332.988 272.773L326.628 297.451C326.073 299.605 327.374 301.823 329.518 302.386L342.195 305.687L345.169 327.744L358.426 309.91L371.103 313.211C373.246 313.768 375.454 312.462 376.011 310.31L382.372 285.633C382.926 283.479 381.627 281.261 379.486 280.7L379.48 280.708L379.479 280.701Z" fill="#E4E1FD" stroke="#312B4C" stroke-width="1.68314" stroke-linecap="round" stroke-linejoin="round"/>
<path d="M361.561 285.688C358.718 284.928 355.785 286.595 355.015 289.421C355.783 286.605 354.1 283.699 351.247 282.937C346.651 281.709 342.858 286.595 345.227 290.68L351.651 301.744L362.822 295.382C366.946 293.035 366.14 286.916 361.549 285.697L361.555 285.689L361.561 285.688Z" fill="#FF7E4D"/>
<mask id="mask0_632_3053" style="mask-type:luminance" maskUnits="userSpaceOnUse" x="344" y="282" width="22" height="20">
<path d="M361.561 285.688C358.718 284.928 355.785 286.595 355.015 289.421C355.783 286.605 354.1 283.699 351.247 282.937C346.651 281.709 342.858 286.595 345.227 290.68L351.651 301.744L362.822 295.382C366.946 293.035 366.14 286.916 361.549 285.697L361.555 285.689L361.561 285.688Z" fill="white"/>
</mask>
<g mask="url(#mask0_632_3053)">
<path d="M369.14 284.75C367.641 286.474 366.142 288.198 364.642 289.921C357.261 294.093 349.882 298.262 342.5 302.434C343.315 303.539 344.13 304.645 344.943 305.744L370.5 290.354C370.046 288.485 369.591 286.616 369.139 284.744L369.14 284.75Z" fill="#FFC4C4"/>
</g>
<path d="M361.561 285.688C358.718 284.928 355.785 286.595 355.015 289.421C355.783 286.605 354.1 283.699 351.247 282.937C346.651 281.709 342.858 286.595 345.227 290.68L351.651 301.744L362.822 295.382C366.946 293.035 366.14 286.916 361.549 285.697L361.555 285.689L361.561 285.688Z" stroke="#312B4C" stroke-width="1.68314" stroke-linecap="round" stroke-linejoin="round"/>
<path d="M291.551 352.774L296.153 354.194C300.899 359.586 309.212 366.9 321.818 370.793C334.424 374.683 345.326 373.298 352.214 371.495L359.5 373.744L359.446 369.001C357.669 366.187 348.432 352.195 329.128 346.238C309.824 340.28 294.513 346.695 291.5 348.03L291.553 352.774H291.551Z" fill="#6140FF" stroke="#312B4C" stroke-width="1.59312" stroke-linecap="round" stroke-linejoin="round"/>
<path d="M291.5 351.952C294.515 350.641 309.839 344.344 329.158 350.192C348.478 356.04 357.721 369.775 359.5 372.537C356.485 373.847 341.162 380.145 321.842 374.296C302.523 368.448 293.279 354.713 291.5 351.952Z" fill="#E4E1FD" stroke="#312B4C" stroke-width="1.59312" stroke-linecap="round" stroke-linejoin="round"/>
<path d="M336.985 366.955C338.94 360.365 335.159 353.361 328.54 351.311C321.921 349.262 314.971 352.943 313.015 359.533C311.06 366.124 314.841 373.128 321.46 375.177C328.079 377.227 335.03 373.545 336.985 366.955Z" fill="#FF7E4D" stroke="#312B4C" stroke-width="1.59312" stroke-linecap="round" stroke-linejoin="round"/>
<path d="M330.273 364.877C331.134 361.977 329.47 358.896 326.557 357.994C323.645 357.092 320.587 358.711 319.726 361.611C318.867 364.511 320.53 367.593 323.443 368.495C326.355 369.396 329.413 367.777 330.273 364.877Z" fill="#312B4C" stroke="#312B4C" stroke-width="1.59312" stroke-linecap="round" stroke-linejoin="round"/>
<path d="M159.546 166.948L159.563 166.991L159.584 167.032L168.5 183.941L143.556 193.744C143.434 193.262 143.265 192.594 143.062 191.795C142.635 190.113 142.058 187.854 141.462 185.541C140.865 183.229 140.249 180.863 139.74 178.967C139.239 177.099 138.828 175.629 138.649 175.16C138.225 174.05 138.689 172.481 140.267 170.745C141.808 169.05 144.254 167.391 147.25 166.214C150.246 165.036 153.155 164.59 155.419 164.79C157.737 164.995 159.122 165.837 159.546 166.948Z" fill="#6140FF" stroke="#312B4C" stroke-width="1.42958"/>
<path d="M142.554 175.15L146.595 186.744L156.5 182.421L151.528 171.307C151.39 170.998 151.082 170.792 150.733 170.773L150.437 170.757C147.417 170.598 144.515 171.902 142.707 174.234C142.502 174.497 142.446 174.839 142.554 175.15Z" fill="#312B4C"/>
<path d="M173.001 186.676C174.055 189.427 173.41 192.637 171.34 195.653C169.272 198.664 165.825 201.401 161.471 203.105C157.117 204.81 152.745 205.133 149.21 204.315C145.669 203.496 143.053 201.561 141.999 198.812C140.945 196.062 141.59 192.851 143.66 189.836C145.728 186.825 149.175 184.087 153.529 182.383C157.883 180.679 162.255 180.356 165.791 181.173C169.33 181.992 171.947 183.927 173.001 186.676Z" fill="#B2A9F8" stroke="#312B4C" stroke-width="1.42958"/>
<path d="M169.059 191.598C174.114 203.663 177.078 209.13 182.5 217.241L154.583 226.744C154.583 226.744 155.231 218.932 147.863 199.838C146.433 196.132 149.259 191.579 155.8 189.036C162.341 186.493 167.629 187.892 169.059 191.598Z" fill="#B2A9F8"/>
<mask id="mask1_632_3053" style="mask-type:alpha" maskUnits="userSpaceOnUse" x="147" y="187" width="36" height="40">
<path d="M169.059 191.598C174.114 203.663 177.078 209.13 182.5 217.241L154.583 226.744C154.583 226.744 155.231 218.932 147.863 199.838C146.433 196.132 149.259 191.578 155.8 189.036C162.341 186.493 167.629 187.892 169.059 191.598Z" fill="#B2A9F8"/>
</mask>
<g mask="url(#mask1_632_3053)">
<path d="M161.465 224.744C161.736 220.033 154.268 199.3 150.5 189.522L159.091 186.744C165.15 202.211 173.222 214.225 176.5 218.3L161.465 224.744Z" fill="#6140FF"/>
<path d="M174.552 220.744C167.092 207.666 162.268 197.376 158.5 187.539L167.092 184.744C173.151 200.305 181.222 212.392 184.5 216.491L174.552 220.744Z" fill="#312B4C"/>
</g>
<path d="M195.051 218.68L195.056 218.695L195.062 218.71L195.068 218.724L195.073 218.739L195.079 218.754L195.085 218.769L195.091 218.783L195.097 218.798L195.102 218.814L195.108 218.828L195.114 218.843L195.12 218.859L195.125 218.874L195.131 218.889L195.137 218.904L195.143 218.92L195.149 218.935L195.155 218.95L195.161 218.966L195.167 218.981L195.173 218.997L195.179 219.012L195.185 219.027L195.191 219.043L195.197 219.059L195.203 219.074L195.209 219.09L195.215 219.106L195.221 219.121L195.227 219.137L195.233 219.153L195.24 219.169L195.246 219.185L195.252 219.201L195.258 219.216L195.264 219.233L195.271 219.249L195.277 219.264L195.283 219.281L195.289 219.297L195.296 219.313L195.302 219.329L195.308 219.345L195.314 219.362L195.321 219.378L195.327 219.394L195.333 219.411L195.34 219.427L195.346 219.443L195.352 219.46L195.359 219.476L195.365 219.492L195.371 219.509L195.378 219.525L195.384 219.542L195.391 219.559L195.397 219.575L195.403 219.591L195.41 219.608L195.416 219.625L195.423 219.641L195.429 219.658L195.436 219.675L195.442 219.692L195.449 219.709L195.455 219.725L195.462 219.743L195.468 219.759L195.475 219.776L195.481 219.793L195.488 219.81L195.495 219.827L195.501 219.844L195.508 219.861L195.514 219.878L195.521 219.895L195.527 219.912L195.534 219.929L195.541 219.946L195.547 219.963L195.554 219.981L195.561 219.998L195.567 220.015L195.574 220.032L195.58 220.049L195.587 220.067L195.594 220.084L195.601 220.101L195.607 220.119L195.614 220.136L195.621 220.153L195.627 220.171L195.634 220.188L195.641 220.206L195.648 220.223L195.654 220.24L195.661 220.258L195.668 220.275L195.675 220.292L195.682 220.31L195.688 220.327L195.695 220.345L195.702 220.363L195.709 220.38L195.715 220.398L195.722 220.415L195.729 220.433L195.736 220.45L195.743 220.468L195.75 220.486L195.756 220.503L195.763 220.521L195.77 220.539L195.777 220.556L195.784 220.574L195.791 220.592L195.797 220.609L195.804 220.627L195.811 220.645L195.818 220.662L195.825 220.68L195.832 220.698L195.839 220.716L195.845 220.733L195.852 220.751L195.859 220.769L195.866 220.787L195.873 220.804L195.88 220.822L195.887 220.84L195.894 220.858L195.9 220.876L195.907 220.893L195.914 220.911L195.921 220.929L195.928 220.947L195.935 220.965L195.942 220.983L195.949 221.001L195.956 221.018L195.962 221.036L195.969 221.054L195.977 221.072L195.984 221.09L195.99 221.108L195.997 221.125L196.004 221.144L196.011 221.161L196.018 221.179L196.025 221.197L196.032 221.215L196.039 221.233L196.046 221.251L196.052 221.268L196.059 221.287L196.066 221.304L196.073 221.322L196.08 221.34L196.087 221.358L196.094 221.376L196.101 221.394L196.108 221.411L196.115 221.429L196.121 221.447L196.129 221.465L196.136 221.483L196.142 221.501L196.149 221.519L196.156 221.536L196.163 221.554L196.17 221.572L196.177 221.59L196.184 221.608L196.191 221.626L196.198 221.643L196.204 221.661L196.211 221.679L196.218 221.697L196.225 221.715L196.232 221.732L196.239 221.75L196.246 221.768L196.253 221.785L196.259 221.803L196.266 221.821L196.274 221.839L196.28 221.857L196.287 221.874L196.294 221.892L196.301 221.91L196.307 221.927L196.314 221.945L196.321 221.962L196.328 221.98L196.335 221.998L196.342 222.015L196.348 222.033L196.355 222.051L196.362 222.068L196.369 222.086L196.376 222.103L196.383 222.121L196.389 222.139L196.396 222.156L196.403 222.174L196.409 222.191L196.416 222.208L196.423 222.226L196.43 222.243L196.437 222.261L196.443 222.278L196.45 222.295L196.457 222.313L196.463 222.33L196.471 222.347L196.477 222.365L196.484 222.382L196.49 222.4L196.497 222.417L196.504 222.434L196.51 222.452L196.517 222.469L196.524 222.486L196.531 222.503L196.537 222.52L196.544 222.538L196.55 222.554L196.557 222.571L196.563 222.589L196.57 222.606L196.577 222.623L196.583 222.64L196.59 222.657L196.596 222.673L196.603 222.691L196.609 222.707L196.616 222.725L196.623 222.741L196.629 222.758L196.636 222.775L196.642 222.792L196.649 222.808L196.655 222.826L196.661 222.842L196.668 222.859L196.675 222.876L196.681 222.892L196.688 222.909L196.694 222.925L196.7 222.942L196.707 222.959L196.713 222.975L196.72 222.991L196.726 223.008L196.732 223.024L196.739 223.041L196.745 223.057L196.751 223.074L196.757 223.09L196.764 223.106L196.77 223.122L196.777 223.139L196.783 223.155L196.789 223.171L196.795 223.187L196.801 223.203L196.808 223.219L196.814 223.236L196.82 223.252L196.826 223.267L196.833 223.284L196.839 223.299L196.845 223.315L196.851 223.331L196.857 223.347L196.863 223.363L196.869 223.379L196.876 223.394L196.882 223.41L196.888 223.426L196.893 223.441L196.899 223.457L196.905 223.472L196.912 223.488L196.918 223.503L196.924 223.519L196.93 223.534L196.935 223.549L196.941 223.565L196.947 223.58L196.953 223.595L196.959 223.611L196.965 223.626L196.971 223.641L196.977 223.656L196.983 223.671L196.988 223.686L196.994 223.701L197 223.716L197.005 223.731L197.012 223.745L197.017 223.76L197.023 223.775L197.029 223.79L197.034 223.805L197.04 223.819L197.045 223.834L197.051 223.849L197.057 223.863L197.063 223.877L197.068 223.892L197.074 223.906L197.079 223.92L197.085 223.935L197.09 223.949L197.096 223.963L197.101 223.977L197.107 223.992L197.112 224.006L197.118 224.019L197.123 224.034L197.128 224.048L197.134 224.061L197.139 224.075L197.144 224.089L197.15 224.103L197.155 224.116L197.16 224.13L197.166 224.144L197.171 224.157L197.176 224.171L197.181 224.184L197.186 224.198L197.191 224.211L197.197 224.224L197.202 224.237L197.207 224.251L197.212 224.264L197.217 224.277L197.222 224.29L197.227 224.303L197.232 224.316L197.237 224.329L197.242 224.341L197.247 224.354L197.252 224.367L197.257 224.38L197.262 224.392L197.267 224.405L197.272 224.418L197.276 224.43L197.281 224.442L197.286 224.455L197.291 224.467L197.295 224.479L197.3 224.491L197.305 224.504L197.31 224.516L197.314 224.527L197.319 224.539L197.323 224.552L197.328 224.563L197.332 224.575L197.337 224.587L197.341 224.599L197.346 224.61L197.35 224.621L197.355 224.633L197.36 224.645L197.364 224.656L197.368 224.667L197.373 224.678L197.377 224.69L197.381 224.701L197.385 224.712L197.39 224.723L197.394 224.734L197.398 224.745L197.403 224.755L197.407 224.766L197.411 224.777L197.415 224.788L197.419 224.798L197.423 224.808L197.427 224.819L197.431 224.83L197.435 224.84L197.439 224.85L197.443 224.86L197.447 224.87L197.451 224.88L197.455 224.89L197.459 224.9L197.462 224.91L197.466 224.92L197.47 224.93L197.473 224.939L197.477 224.949L197.481 224.958L197.484 224.968L197.488 224.977L197.492 224.986L197.495 224.995L197.499 225.005L197.5 225.007C195.478 226.54 191.492 228.605 187.099 230.639C182.414 232.809 177.373 234.896 174.029 236.192C170.684 237.488 165.553 239.343 160.63 240.897C156.013 242.355 151.678 243.515 149.151 243.744L149.074 243.546L148.39 241.778L146.702 237.417C146.334 236.466 146.453 235.145 147.195 233.512C147.93 231.895 149.233 230.074 151.045 228.21C154.665 224.485 160.228 220.678 167.006 218.051C173.784 215.425 180.459 214.489 185.642 214.802C188.237 214.959 190.426 215.426 192.058 216.126C193.705 216.832 194.682 217.729 195.051 218.68Z" fill="#B2A9F8" stroke="#312B4C" stroke-width="1.42958"/>
<path d="M203.733 229.497C205.109 233.036 207.5 239.191 207.5 239.191C203.327 243.306 188.229 249.894 180.699 252.801C173.17 255.708 157.558 260.976 151.693 260.736C151.693 260.736 149.302 254.582 147.926 251.043C145.237 244.122 155.55 233.688 170.961 227.739C186.371 221.789 201.044 222.576 203.733 229.497Z" fill="#6140FF"/>
<path d="M206.25 238.597C206.709 239.794 206.546 241.265 205.678 242.981C204.811 244.696 203.276 246.572 201.158 248.489C196.923 252.32 190.477 256.201 182.82 259.194C175.162 262.186 167.806 263.697 162.12 263.743C159.273 263.766 156.886 263.422 155.1 262.744C153.313 262.065 152.21 261.088 151.75 259.892C151.291 258.695 151.454 257.223 152.322 255.508C153.19 253.793 154.724 251.916 156.843 249.999C161.077 246.168 167.523 242.287 175.18 239.295C182.838 236.303 190.194 234.792 195.88 234.745C198.727 234.722 201.114 235.067 202.9 235.745C204.687 236.423 205.79 237.399 206.25 238.597Z" fill="#312B4C" stroke="#6140FF" stroke-width="1.42958"/>
<path d="M150.509 237.959L152.323 243.744L161.507 236.348L174.5 219.744C156.542 224.737 151.869 233.872 151.119 235.169C150.519 236.207 150.474 237.48 150.509 237.959Z" fill="#6140FF"/>
<path d="M159.5 234.617C161.61 233.002 166.996 229.313 171.656 227.478C177.481 225.183 186.851 223.143 193.942 223.908C199.614 224.52 202.921 227.153 203.681 228.428L208.386 239.63C209.019 241.5 207.217 247.319 197.897 253.744" stroke="#312B4C" stroke-width="1.42958" stroke-linecap="round"/>
<path d="M351.5 221.744L330.832 181.744L318.5 187.218L351.5 221.744Z" fill="#E4E1FD" stroke="#312B4C" stroke-width="1.42958" stroke-linecap="round" stroke-linejoin="round"/>
<path d="M314.5 193.535L351.5 220.744L319.061 186.744L314.5 193.535Z" fill="#312B4C" stroke="#312B4C" stroke-width="1.42958" stroke-linecap="round" stroke-linejoin="round"/>
<path d="M310.546 188.744L351.5 221.744L293.5 195.137L310.546 188.744Z" fill="#E4E1FD" stroke="#312B4C" stroke-width="1.42958" stroke-linecap="round" stroke-linejoin="round"/>
<path d="M312.5 182.347C308.058 158.012 262.313 158.08 222.5 187.744" stroke="#312B4C" stroke-width="1.9061" stroke-linecap="round" stroke-dasharray="5.72 5.72"/>
<path d="M250.236 362.236L250.415 362.531L250.755 362.59L251.5 362.721V368.139C251.477 371.463 249.261 374.916 244.537 377.636C239.76 380.377 233.438 381.759 227.068 381.744C220.698 381.729 214.362 380.319 209.558 377.564C204.835 374.844 202.591 371.412 202.5 368.132V362.602H203.017H203.456L203.675 362.223C204.798 360.28 206.686 358.43 209.458 356.854L209.461 356.853C214.239 354.111 220.562 352.73 226.932 352.744C233.302 352.759 239.638 354.169 244.442 356.924C247.173 358.503 249.089 360.335 250.236 362.236Z" fill="#312B4C" stroke="#6140FF" stroke-width="1.42958"/>
<path d="M245.099 372.529C235.163 378.173 219.031 378.149 209.022 372.457C199.037 366.789 198.989 357.604 208.901 351.96C218.837 346.315 234.969 346.339 244.978 352.032C254.963 357.7 255.011 366.884 245.099 372.529Z" fill="#6140FF"/>
<path d="M251.5 356.888H250.182C249.035 354.991 247.107 353.212 244.423 351.718C235.028 346.452 219.825 346.404 210.48 351.67C207.771 353.188 205.843 354.991 204.72 356.912H203.5V360.423C203.598 363.814 205.965 367.183 210.577 369.768C219.972 375.034 235.175 375.081 244.521 369.839C249.157 367.23 251.475 363.838 251.5 360.423V356.912V356.888Z" fill="#312B4C"/>
<path d="M244.521 366.822C235.174 372.075 219.972 372.051 210.577 366.751C201.182 361.451 201.133 352.918 210.479 347.666C219.826 342.413 235.028 342.437 244.423 347.737C253.818 353.014 253.867 361.57 244.521 366.822Z" fill="#E4E1FD"/>
<path d="M244.534 365.996C235.187 371.253 219.984 371.229 210.588 365.948C206.049 363.38 203.683 360.074 203.511 356.744C203.316 360.359 205.659 363.998 210.588 366.757C219.984 372.037 235.187 372.085 244.534 366.829C249.366 364.117 251.684 360.502 251.489 356.934C251.318 360.24 249 363.499 244.534 366.02V365.996Z" fill="white"/>
<path d="M209.572 367.481L209.572 367.48C204.764 364.674 202.519 361.103 202.5 357.694C202.481 354.287 204.683 350.727 209.452 347.935C214.23 345.144 220.545 343.732 226.912 343.744C233.278 343.757 239.613 345.192 244.428 348.008L244.429 348.008C249.237 350.815 251.481 354.385 251.5 357.794C251.519 361.201 249.318 364.762 244.548 367.554C239.77 370.344 233.455 371.756 227.089 371.744C220.723 371.732 214.388 370.297 209.572 367.481Z" fill="#6140FF" stroke="#312B4C" stroke-width="1.42958"/>
<path d="M245.5 353.792C245.51 356.016 244.147 358.37 241.134 360.309L240.422 360.717C236.915 362.731 232.26 363.753 227.556 363.744C222.852 363.736 218.184 362.695 214.651 360.67C211.113 358.641 209.511 356.089 209.5 353.699C209.49 351.311 211.067 348.775 214.577 346.772L214.579 346.771C218.086 344.758 222.741 343.735 227.444 343.744C232.148 343.753 236.817 344.793 240.35 346.819C243.887 348.848 245.49 351.399 245.5 353.792Z" fill="#312B4C" stroke="#6140FF" stroke-width="1.42958"/>
<path d="M251.462 361.744H228.5V342.744C234.521 342.89 240.495 344.346 245.106 347.064C251.892 351.043 254.019 356.746 251.438 361.744H251.462Z" fill="#312B4C"/>
<path d="M243.175 350.754L242.088 347.236C237.981 333.959 236.846 319.936 238.73 306.178L239.333 301.744L227.497 301.865L215.66 301.744L216.263 306.178C218.148 319.936 217.012 333.959 212.905 347.236L211.915 350.393C210.707 353.404 212.133 356.681 216.215 359.019C222.472 362.633 232.618 362.657 238.85 359.067C242.764 356.802 244.213 353.669 243.175 350.754Z" fill="#6140FF"/>
<path d="M216.096 359.221C218.477 360.615 221.429 361.456 224.5 361.744V311.373L216.335 307.744C217.977 321.058 216.787 334.54 212.883 347.373L211.811 350.906C210.811 353.814 212.216 356.938 216.096 359.197V359.221Z" fill="#B2A9F8"/>
<path d="M243.136 350.903L242.044 347.354C238.692 336.489 237.308 325.141 237.963 313.841C237.988 313.213 238.037 312.585 238.085 311.934C238.182 310.629 238.304 309.35 238.474 308.046C238.546 307.443 238.595 306.815 238.692 306.211L239.299 301.744L227.4 301.865L215.5 301.744L216.107 306.211C216.52 309.205 216.787 312.175 216.908 315.169C220.867 316.738 225.651 317.342 230.241 316.956V361.744C233.374 361.454 236.409 360.585 238.814 359.209C242.748 356.939 244.205 353.801 243.185 350.879L243.136 350.903Z" fill="#312B4C"/>
<path d="M236.015 306.709C231.348 309.427 223.75 309.427 219.034 306.685C214.343 303.943 214.318 299.496 218.985 296.779C223.652 294.062 231.251 294.062 235.966 296.804C240.658 299.546 240.682 303.992 236.015 306.709Z" fill="#E4E1FD"/>
<path d="M239.563 310.719C236.151 312.731 231.627 313.753 227.055 313.744C222.483 313.735 217.945 312.695 214.508 310.67C211.067 308.642 209.51 306.094 209.5 303.707C209.49 301.323 211.021 298.784 214.437 296.77C217.849 294.758 222.373 293.736 226.945 293.744C231.516 293.753 236.054 294.793 239.492 296.819C242.934 298.847 244.489 301.394 244.5 303.781C244.51 306.166 242.979 308.704 239.563 310.719Z" fill="#B2A9F8" stroke="#312B4C" stroke-width="1.42958"/>
<path d="M233.748 303.146C230.058 305.293 224.037 305.269 220.3 303.122C216.587 300.974 216.563 297.49 220.252 295.343C223.942 293.195 229.963 293.219 233.7 295.367C237.414 297.515 237.437 300.998 233.748 303.146Z" fill="#312B4C"/>
<path d="M246.5 303.744H228.5V293.744C233.049 293.842 237.524 294.918 241.016 296.898C244.336 298.805 246.18 301.275 246.5 303.744Z" fill="#312B4C"/>
<path d="M240.5 289.244C240.5 296.71 234.444 302.744 227 302.744C219.557 302.744 213.5 296.687 213.5 289.244C213.5 281.802 219.557 275.744 227 275.744C234.443 275.744 240.5 281.802 240.5 289.244Z" fill="#312B4C" stroke="#312B4C" stroke-width="1.42958"/>
<path d="M238.5 288.244C238.5 294.587 233.342 299.744 227 299.744C220.657 299.744 215.5 294.587 215.5 288.244C215.5 281.902 220.657 276.744 227 276.744C233.342 276.744 238.5 281.902 238.5 288.244Z" fill="#6140FF"/>
<path d="M228.5 282.744C228.5 285.512 226.267 287.744 223.5 287.744C220.733 287.744 218.5 285.512 218.5 282.744C218.5 279.977 220.733 277.744 223.5 277.744C226.267 277.744 228.5 279.977 228.5 282.744Z" fill="#B2A9F8"/>
</g>
<defs>
<clipPath id="clip0_632_3053">
<rect width="467" height="479" fill="white" transform="translate(-48.5 0.744202)"/>
</clipPath>
</defs>
</svg>
