<svg width="28" height="29" viewBox="0 0 28 29" fill="none" xmlns="http://www.w3.org/2000/svg">
<g clip-path="url(#clip0_545_1220)">
<path d="M13.7756 3.22212C17.4508 3.22212 17.8861 3.23824 19.3314 3.30271C20.6747 3.36182 21.4001 3.58749 21.8837 3.77555C22.5231 4.02271 22.9851 4.3236 23.4633 4.80181C23.9469 5.28539 24.2424 5.7421 24.4896 6.3815C24.6777 6.86508 24.9033 7.59582 24.9624 8.93372C25.0269 10.3845 25.043 10.8197 25.043 14.4895C25.043 18.1647 25.0269 18.5999 24.9624 20.0453C24.9033 21.3886 24.6777 22.1139 24.4896 22.5975C24.2424 23.2369 23.9415 23.699 23.4633 24.1772C22.9798 24.6608 22.5231 24.9563 21.8837 25.2035C21.4001 25.3915 20.6693 25.6172 19.3314 25.6763C17.8807 25.7408 17.4455 25.7569 13.7756 25.7569C10.1004 25.7569 9.66522 25.7408 8.21986 25.6763C6.87658 25.6172 6.15122 25.3915 5.66764 25.2035C5.02824 24.9563 4.56615 24.6554 4.08794 24.1772C3.60437 23.6936 3.30885 23.2369 3.06168 22.5975C2.87362 22.1139 2.64795 21.3832 2.58885 20.0453C2.52437 18.5946 2.50825 18.1593 2.50825 14.4895C2.50825 10.8143 2.52437 10.3791 2.58885 8.93372C2.64795 7.59045 2.87362 6.86508 3.06168 6.3815C3.30885 5.7421 3.60974 5.28001 4.08794 4.80181C4.57152 4.31823 5.02824 4.02271 5.66764 3.77555C6.15122 3.58749 6.88196 3.36182 8.21986 3.30271C9.66522 3.23824 10.1004 3.22212 13.7756 3.22212ZM13.7756 0.745117C10.0413 0.745117 9.57388 0.761236 8.10702 0.825714C6.64554 0.890191 5.64077 1.12661 4.77033 1.46511C3.86227 1.81974 3.09392 2.2872 2.33094 3.05555C1.56259 3.81853 1.09513 4.58688 0.740503 5.48956C0.401998 6.36538 0.165582 7.36478 0.101104 8.82626C0.0366271 10.2985 0.0205078 10.7659 0.0205078 14.5003C0.0205078 18.2346 0.0366271 18.702 0.101104 20.1689C0.165582 21.6304 0.401998 22.6351 0.740503 23.5056C1.09513 24.4136 1.56259 25.182 2.33094 25.945C3.09392 26.7079 3.86227 27.1808 4.76496 27.53C5.64077 27.8685 6.64017 28.1049 8.10165 28.1694C9.56851 28.2339 10.036 28.25 13.7703 28.25C17.5046 28.25 17.972 28.2339 19.4389 28.1694C20.9004 28.1049 21.9051 27.8685 22.7756 27.53C23.6783 27.1808 24.4466 26.7079 25.2096 25.945C25.9726 25.182 26.4454 24.4136 26.7947 23.5109C27.1332 22.6351 27.3696 21.6357 27.4341 20.1742C27.4985 18.7074 27.5147 18.2399 27.5147 14.5056C27.5147 10.7713 27.4985 10.3039 27.4341 8.83701C27.3696 7.37552 27.1332 6.37075 26.7947 5.50031C26.4562 4.58688 25.9887 3.81853 25.2203 3.05555C24.4574 2.29257 23.689 1.81974 22.7863 1.47049C21.9105 1.13198 20.9111 0.895564 19.4496 0.831087C17.9774 0.761236 17.5099 0.745117 13.7756 0.745117Z" fill="#312B4C"/>
<path d="M13.7753 7.43457C9.87447 7.43457 6.70972 10.5993 6.70972 14.5002C6.70972 18.4011 9.87447 21.5658 13.7753 21.5658C17.6762 21.5658 20.841 18.4011 20.841 14.5002C20.841 10.5993 17.6762 7.43457 13.7753 7.43457ZM13.7753 19.0835C11.2446 19.0835 9.19209 17.0309 9.19209 14.5002C9.19209 11.9695 11.2446 9.91694 13.7753 9.91694C16.3061 9.91694 18.3586 11.9695 18.3586 14.5002C18.3586 17.0309 16.3061 19.0835 13.7753 19.0835Z" fill="#312B4C"/>
<path d="M22.77 7.1554C22.77 8.06883 22.0285 8.80495 21.1205 8.80495C20.2071 8.80495 19.4709 8.06346 19.4709 7.1554C19.4709 6.24198 20.2124 5.50586 21.1205 5.50586C22.0285 5.50586 22.77 6.24735 22.77 7.1554Z" fill="#312B4C"/>
</g>
<defs>
<clipPath id="clip0_545_1220">
<rect width="27.5103" height="27.5103" fill="white" transform="translate(0.0205078 0.745117)"/>
</clipPath>
</defs>
</svg>
