<svg width="28" height="29" viewBox="0 0 28 29" fill="none" xmlns="http://www.w3.org/2000/svg">
<g clip-path="url(#clip0_545_1216)">
<path d="M25.4739 0.745117H2.03103C0.908054 0.745117 0 1.63168 0 2.72779V26.2673C0 27.3635 0.908054 28.2554 2.03103 28.2554H25.4739C26.5968 28.2554 27.5103 27.3635 27.5103 26.2727V2.72779C27.5103 1.63168 26.5968 0.745117 25.4739 0.745117ZM8.16174 24.188H4.07818V11.0561H8.16174V24.188ZM6.11996 9.26685C4.80892 9.26685 3.75042 8.20835 3.75042 6.90269C3.75042 5.59703 4.80892 4.53853 6.11996 4.53853C7.42562 4.53853 8.48412 5.59703 8.48412 6.90269C8.48412 8.20298 7.42562 9.26685 6.11996 9.26685ZM23.4428 24.188H19.3647V17.8047C19.3647 16.2841 19.3378 14.3229 17.2423 14.3229C15.1199 14.3229 14.7975 15.9832 14.7975 17.6972V24.188H10.7247V11.0561H14.6363V12.8507H14.6901C15.2327 11.8191 16.5653 10.7283 18.5479 10.7283C22.6799 10.7283 23.4428 13.4471 23.4428 16.9826V24.188V24.188Z" fill="#fff"/>
</g>
<defs>
<clipPath id="clip0_545_1216">
<rect width="27.5103" height="27.5103" fill="white" transform="translate(0 0.745117)"/>
</clipPath>
</defs>
</svg>
