<svg width="28" height="27" viewBox="0 0 28 27" fill="none" xmlns="http://www.w3.org/2000/svg">
<g clip-path="url(#clip0_753_1052)">
<path d="M20.4344 12.5145C20.3181 12.4587 20.2 12.4051 20.0803 12.3537C19.8719 8.51367 17.7736 6.31525 14.2504 6.29275C14.2344 6.29266 14.2186 6.29266 14.2026 6.29266C12.0953 6.29266 10.3426 7.19218 9.26386 8.82902L11.2015 10.1582C12.0074 8.93556 13.2721 8.67491 14.2035 8.67491C14.2143 8.67491 14.2251 8.67491 14.2357 8.67501C15.3958 8.68241 16.2712 9.0197 16.8378 9.67746C17.2501 10.1563 17.5259 10.8181 17.6624 11.6532C16.6339 11.4784 15.5215 11.4247 14.3324 11.4928C10.9827 11.6858 8.8292 13.6394 8.97383 16.3541C9.04722 17.7311 9.73322 18.9157 10.9054 19.6895C11.8964 20.3437 13.1728 20.6636 14.4994 20.5912C16.2512 20.4952 17.6256 19.8268 18.5843 18.6046C19.3125 17.6765 19.773 16.4737 19.9764 14.9582C20.8113 15.4621 21.43 16.1251 21.7717 16.9222C22.3528 18.2771 22.3867 20.5036 20.57 22.3188C18.9782 23.909 17.0649 24.5969 14.1733 24.6182C10.9657 24.5944 8.53989 23.5657 6.96268 21.5607C5.48575 19.6832 4.72247 16.9714 4.69399 13.5005C4.72247 10.0296 5.48575 7.31771 6.96268 5.44024C8.53989 3.43524 10.9657 2.40658 14.1732 2.38275C17.4041 2.40676 19.8722 3.44037 21.5098 5.45505C22.3127 6.44303 22.9181 7.68548 23.3172 9.13412L25.5879 8.5283C25.1041 6.74517 24.3429 5.20863 23.3071 3.93433C21.2077 1.35143 18.1373 0.027931 14.1812 0.000488281H14.1653C10.2172 0.0278356 7.18121 1.35637 5.14162 3.94914C3.32665 6.25639 2.39044 9.46676 2.35899 13.491L2.35889 13.5005L2.35899 13.51C2.39044 17.5342 3.32665 20.7446 5.14162 23.0519C7.18121 25.6446 10.2172 26.9732 14.1653 27.0005H14.1812C17.6912 26.9762 20.1654 26.0572 22.2036 24.0208C24.8703 21.3566 24.79 18.0172 23.9111 15.9672C23.2805 14.4971 22.0783 13.3031 20.4344 12.5145ZM14.374 18.2124C12.9058 18.2951 11.3806 17.6361 11.3054 16.2247C11.2496 15.1781 12.0502 14.0104 14.4641 13.8713C14.7405 13.8553 15.0118 13.8476 15.2782 13.8476C16.155 13.8476 16.9753 13.9327 17.721 14.0958C17.4429 17.5695 15.8114 18.1335 14.374 18.2124Z" fill="#312B4C"/>
</g>
<defs>
<clipPath id="clip0_753_1052">
<rect width="27" height="27" fill="white" transform="translate(0.530762 0.000488281)"/>
</clipPath>
</defs>
</svg>
